<svg width="512" height="512" viewBox="0 0 512 512" fill="none" xmlns="http://www.w3.org/2000/svg">
<path d="M27.383 314.082C29.056 318.617 31.692 322.699 35.065 326.044C41.046 332.025 49.268 335.738 58.338 335.738C67.381 335.738 75.63 332.025 81.61 326.044C87.591 320.064 91.304 311.815 91.304 302.772V284.432C84.36 285.027 78.265 283.525 73.503 281.54C73.077 283.609 72.596 285.622 71.972 287.606C69.619 295.259 65.679 302.233 59.443 307.25C53.122 312.353 44.732 315.301 33.619 314.733C31.635 314.648 29.565 314.422 27.383 314.082V314.082ZM221.673 264.958H287.607V244.236H236.838C232.671 244.236 228.872 245.966 226.123 248.715C223.373 251.465 221.673 255.235 221.673 259.402V264.958ZM287.606 279.953H221.672V302.771C221.672 311.814 225.385 320.063 231.366 326.043C237.346 332.024 245.595 335.737 254.638 335.737C263.708 335.737 271.957 332.024 277.911 326.043C283.891 320.063 287.605 311.814 287.605 302.771V279.953H287.606ZM493.121 330.013C497.146 332.139 500.689 335.031 503.609 338.46C508.853 344.64 512 352.605 512 361.25V411.82C512 415.959 508.655 419.303 504.517 419.303C500.379 419.303 497.005 415.958 497.005 411.82V361.25C497.005 356.262 495.19 351.669 492.186 348.126C489.521 344.979 485.921 342.655 481.811 341.55C473.903 347.332 464.178 350.734 453.691 350.734C442.835 350.734 432.799 347.106 424.72 340.955C423.19 341.125 421.715 341.551 420.298 342.203C418.37 343.109 416.613 344.499 415.195 346.369L374.914 399.718C373.497 401.589 371.286 402.723 368.934 402.723H317.315C313.488 402.723 310.03 404.253 307.536 406.747C305.041 409.27 303.482 412.728 303.482 416.527C303.482 420.353 305.041 423.812 307.536 426.306C310.03 428.8 313.488 430.36 317.315 430.36H378.968C381.436 430.36 383.334 430.105 385.688 428.914C390.053 426.731 394.135 420.099 397.111 416.13L423.786 380.839C426.28 377.523 430.957 376.87 434.273 379.365C437.561 381.859 438.213 386.564 435.719 389.853L410.349 423.471V488.838H497.005V445.779C497.005 441.64 500.378 438.296 504.517 438.296C508.656 438.296 512 441.641 512 445.779V496.349C512 500.488 508.655 503.832 504.517 503.832C338.829 503.832 173.171 503.832 7.512 503.832C3.374 503.832 0 500.487 0 496.349V445.779C0 441.64 3.374 438.296 7.512 438.296C11.651 438.296 14.995 441.641 14.995 445.779V488.838H101.68V423.471L76.282 389.853C73.788 386.564 74.44 381.859 77.757 379.365C81.045 376.87 85.75 377.522 88.245 380.839L114.323 415.365C116.704 418.511 119.086 421.685 121.466 424.861C122.826 426.646 124.499 428.007 126.342 428.914C128.411 429.963 130.339 430.36 132.607 430.36H194.714C198.513 430.36 201.971 428.8 204.493 426.306C206.988 423.812 208.518 420.353 208.518 416.527C208.518 412.728 206.988 409.27 204.493 406.747C201.971 404.253 198.513 402.723 194.714 402.723H143.067C140.799 402.723 138.56 401.674 137.087 399.718L96.806 346.369C94.509 343.336 91.079 341.381 87.282 340.955C79.231 347.078 69.197 350.734 58.34 350.734C47.852 350.734 38.1 347.333 30.192 341.579C26.167 342.628 22.595 344.924 19.93 347.985C16.868 351.556 14.997 356.177 14.997 361.251V411.821C14.997 415.96 11.652 419.304 7.514 419.304C3.376 419.304 0.002 415.959 0.002 411.821V361.251C0.002 352.492 3.262 344.414 8.619 338.206C11.511 334.89 14.997 332.083 18.909 330.014C13.325 321.992 10.377 312.524 10.377 302.773V259.403C10.377 251.097 13.75 243.557 19.221 238.087C24.693 232.645 32.204 229.243 40.509 229.243H76.14C84.446 229.243 91.986 232.644 97.456 238.087C102.928 243.558 106.301 251.098 106.301 259.403V302.773C106.301 312.382 103.438 321.369 98.533 328.88C102.587 330.921 106.016 333.727 108.766 337.356L146.78 387.699H176.798V357.284C176.798 348.667 181.362 340.871 188.76 334.266C194.487 329.164 202.027 324.713 210.361 321.199C207.98 315.501 206.677 309.293 206.677 302.773V272.47V259.402C206.677 251.096 210.078 243.556 215.522 238.086C220.993 232.644 228.533 229.242 236.838 229.242H295.118C299.258 229.242 302.631 232.615 302.631 236.754V272.471V302.773C302.631 308.924 301.441 314.821 299.315 320.263C308.272 323.778 316.379 328.313 322.503 333.585C330.354 340.332 335.202 348.382 335.202 357.283V387.698H365.22L403.234 337.355C406.041 333.669 409.555 330.835 413.496 328.908C408.563 321.368 405.7 312.382 405.7 302.772V259.402C405.7 251.096 409.102 243.556 414.545 238.086C420.016 232.644 427.556 229.242 435.861 229.242H471.494C479.799 229.242 487.34 232.643 492.81 238.086C498.252 243.557 501.654 251.097 501.654 259.402V302.772C501.653 312.522 498.677 321.99 493.121 330.013ZM484.617 314.082C482.463 314.422 480.365 314.648 478.381 314.733C467.297 315.3 458.906 312.352 452.585 307.25C446.32 302.233 442.38 295.26 440.027 287.606C439.431 285.622 438.922 283.609 438.524 281.54C433.734 283.524 427.668 285.026 420.695 284.432V302.772C420.695 311.815 424.408 320.064 430.389 326.044C436.369 332.025 444.619 335.738 453.69 335.738C462.732 335.738 470.982 332.025 476.963 326.044C480.309 322.699 482.944 318.617 484.617 314.082V314.082ZM420.695 269.408C430.701 270.825 438.014 265.014 439.318 263.88C440.793 262.633 442.181 261.868 444.194 261.782C448.333 261.584 451.819 264.759 452.017 268.897C452.273 273.773 452.952 278.706 454.341 283.212C455.872 288.229 458.281 292.651 461.939 295.599C465.539 298.491 470.614 300.135 477.672 299.794C480.393 299.652 483.369 299.228 486.657 298.49V259.4C486.657 255.233 484.928 251.463 482.178 248.713C479.429 245.964 475.658 244.234 471.492 244.234H435.86C431.693 244.234 427.922 245.964 425.173 248.713C422.423 251.463 420.695 255.233 420.695 259.4V269.408ZM91.305 269.408V259.401C91.305 255.234 89.605 251.464 86.855 248.714C84.106 245.965 80.307 244.235 76.14 244.235H40.507C36.369 244.235 32.57 245.965 29.82 248.714C27.071 251.464 25.37 255.234 25.37 259.401V298.491C28.63 299.228 31.606 299.653 34.328 299.795C41.387 300.136 46.461 298.491 50.06 295.6C53.717 292.653 56.126 288.23 57.686 283.213C59.075 278.706 59.755 273.774 59.982 268.898C60.18 264.759 63.695 261.585 67.805 261.783C69.733 261.869 71.206 262.577 72.624 263.824C73.674 264.759 81.101 270.853 91.305 269.408V269.408ZM218.385 334.095C210.56 337.128 203.644 340.983 198.711 345.406C194.431 349.204 191.794 353.286 191.794 357.283V387.698H194.714C202.652 387.698 209.88 390.929 215.096 396.145C220.312 401.361 223.543 408.561 223.543 416.527C223.543 421.544 222.239 426.25 220 430.36H292C289.761 426.25 288.485 421.544 288.485 416.527C288.485 408.561 291.716 401.361 296.933 396.145C302.149 390.929 309.348 387.698 317.314 387.698H320.206V357.283C320.206 353.144 317.371 348.892 312.779 344.952C307.393 340.332 299.909 336.335 291.575 333.302C290.611 334.464 289.591 335.598 288.542 336.647C279.84 345.349 267.849 350.735 254.64 350.735C241.458 350.735 229.44 345.349 220.766 336.647C219.943 335.823 219.149 334.974 218.385 334.095V334.095ZM62.505 63.697C58.366 63.697 55.022 60.324 55.022 56.185C55.022 52.046 58.367 48.702 62.505 48.702H201.347C205.486 48.702 208.831 52.047 208.831 56.185C208.831 60.324 205.485 63.697 201.347 63.697H62.505ZM62.505 142.614C58.366 142.614 55.022 139.241 55.022 135.102C55.022 130.963 58.367 127.59 62.505 127.59H131.927C136.066 127.59 139.439 130.963 139.439 135.102C139.439 139.241 136.066 142.614 131.927 142.614H62.505ZM62.505 103.156C58.366 103.156 55.022 99.782 55.022 95.644C55.022 91.505 58.367 88.161 62.505 88.161H201.347C205.486 88.161 208.831 91.506 208.831 95.644C208.831 99.782 205.485 103.156 201.347 103.156H62.505ZM209.029 183.121C210.078 186.041 211.75 188.648 213.877 190.774C217.676 194.601 222.948 196.982 228.815 196.982H272.894C277.033 196.982 280.377 200.327 280.377 204.494C280.377 208.633 277.032 211.977 272.894 211.977H228.815C218.809 211.977 209.794 207.896 203.274 201.319C198.399 196.416 194.94 190.123 193.466 183.121H88.896L54.937 217.08C53.577 218.441 51.706 219.291 49.608 219.291C45.469 219.291 42.096 215.946 42.096 211.808V182.498C32.571 180.91 24.038 176.347 17.491 169.77C9.242 161.549 4.14 150.182 4.14 137.653V53.635C4.14 41.134 9.243 29.767 17.491 21.519C25.711 13.298 37.078 8.16699 49.608 8.16699H214.247C226.775 8.16699 238.143 13.298 246.363 21.519C254.612 29.767 259.714 41.134 259.714 53.635V67.525H387.106C397.055 67.525 406.07 71.579 412.618 78.127C419.166 84.675 423.22 93.689 423.22 103.639V175.866C423.22 185.816 419.166 194.83 412.618 201.378C407.77 206.226 401.535 209.712 394.59 211.187V240.667C394.59 242.566 393.881 244.493 392.407 245.968C389.487 248.887 384.725 248.887 381.804 245.968L347.817 211.98H306.856C302.717 211.98 299.344 208.635 299.344 204.497C299.344 200.33 302.717 196.985 306.856 196.985H350.935C353.033 196.985 354.903 197.836 356.264 199.224L379.593 222.553V204.496C379.593 200.329 382.966 196.984 387.106 196.984C392.888 196.984 398.189 194.603 402.016 190.776C405.843 186.95 408.224 181.677 408.224 175.866V103.639C408.224 97.828 405.843 92.556 402.016 88.729C398.189 84.902 392.888 82.521 387.106 82.521H259.713V137.655C259.713 150.184 254.611 161.551 246.362 169.772C238.141 178.02 226.774 183.123 214.246 183.123H209.029V183.121ZM85.777 168.126H214.246C222.637 168.126 230.233 164.696 235.761 159.169C241.288 153.641 244.718 146.016 244.718 137.653V53.635C244.718 45.273 241.288 37.648 235.761 32.12C230.234 26.592 222.637 23.162 214.246 23.162H49.607C41.216 23.162 33.619 26.592 28.091 32.12C22.564 37.647 19.133 45.272 19.133 53.635V137.654C19.133 146.016 22.564 153.641 28.091 159.17C33.618 164.697 41.216 168.127 49.607 168.127C53.746 168.127 57.09 171.5 57.09 175.639V193.696L80.476 170.339C81.951 168.863 83.85 168.126 85.777 168.126V168.126ZM395.353 445.354H116.676V488.837H395.354V445.354H395.353Z" fill="white"/>
</svg>
