<svg width="270" height="405" viewBox="0 0 270 405" fill="none" xmlns="http://www.w3.org/2000/svg">
<g clip-path="url(#clip0)">
<path d="M303.75 438.75H-33.75V101.25H303.75V438.75Z" fill="#2C1162"/>
<path d="M139.05 84.6909L133.827 232.199L130.324 84.2427L139.05 84.6909ZM98.824 86.0422L122.884 232.07L107.527 85.2727L98.824 86.0422ZM90.2731 112.593L123.452 233.986L92.9731 110.793L90.2731 112.593ZM35.374 94.5931L118.553 235.944L43.528 91.453L35.374 94.5931ZM31.7857 112.787L113.161 236.404L34.4736 107.642L31.7857 112.787ZM-16.0178 96.178L61.2022 179.246L-9.04503 90.9117L-16.0178 96.178ZM-20.8764 134.642L106.122 245.577L-15.0269 126.542L-20.8764 134.642ZM-40.6769 137.793L74.9736 225.094L-39.9249 133.96L-40.6769 137.793ZM-34.0065 192.772L100.51 254.483L-29.777 185.127L-34.0065 192.772ZM-59.5769 193.593L76.3236 249.843L-60.476 188.642L-59.5769 193.593ZM-73.9463 236.949L72.3694 259.192L-75.5892 232.934L-73.9463 236.949ZM-59.5377 266.714L88.4492 268.377L-58.7858 258.009L-59.5377 266.714ZM-78.4769 205.293L41.6731 242.193L-79.3773 200.343L-78.4769 205.293ZM107.527 454.725L122.884 307.927L98.824 453.955L107.527 454.725ZM92.9731 429.204L123.452 306.011L90.2731 427.405L92.9731 429.204ZM41.6151 459.396L105.889 336.016L33.4611 456.254L41.6151 459.396ZM34.4736 432.355L113.161 303.593L31.7857 427.21L34.4736 432.355ZM-15.1362 458.41L75.6783 342.056L-22.109 453.144L-15.1362 458.41ZM-15.0269 413.455L106.122 294.42L-20.8764 405.355L-15.0269 413.455ZM-39.9249 406.038L74.9736 314.905L-40.6769 402.204L-39.9249 406.038ZM-29.7783 354.87L100.509 285.513L-34.0079 347.225L-29.7783 354.87ZM-60.476 351.355L76.3236 290.154L-59.5769 346.405L-60.476 351.355ZM-75.5892 307.063L72.3694 280.807L-73.9463 303.048L-75.5892 307.063ZM-79.376 339.656L41.6745 297.805L-78.4755 334.704L-79.376 339.656ZM162.591 76.0981L144.332 222.565L164.041 101.768L162.591 76.0981ZM191.447 91.9755L152.982 234.475L199.917 94.1179L191.447 91.9755ZM201.766 119.483L152.118 236.276L204.146 121.689L201.766 119.483ZM253.654 108.238L156.644 238.986L261.207 112.632L253.654 108.238ZM260.023 125.659L161.895 240.297L261.861 131.166L260.023 125.659ZM305.747 108.73L222.265 192.112L311.795 115.036L305.747 108.73ZM305.896 152.176L167.388 250.471L310.385 161.102L305.896 152.176ZM329.3 163.451L201.394 235.19L329.436 167.355L329.3 163.451ZM311.16 212.359L171.515 260.156L314.122 220.581L311.16 212.359ZM340.911 220.703L196.132 259.412L339.237 225.449L340.911 220.703ZM345.337 265.108L197.346 263.843L348.802 266.832L345.337 265.108ZM323.041 283.202L176.028 270.066L322.403 291.916L323.041 283.202ZM325.752 305.212L234.6 292.945L324.078 309.959L325.752 305.212ZM141.516 457.365L140.941 309.369L132.799 456.743L141.516 457.365ZM154.173 432.508L140.685 307.387L151.223 433.856L154.173 432.508ZM219.523 455.776L145.831 306.233L210.974 457.584L219.523 455.776ZM226.761 438.287L151.23 306.634L223.29 442.939L226.761 438.287ZM267.413 428.382L159.635 298.694L260.351 435.451L267.413 428.382ZM287.464 428.414L187.138 323.865L286.112 432.08L287.464 428.414ZM289.603 373.074L166.589 290.791L284.215 379.952L289.603 373.074ZM314.981 376.322L189.733 299.213L315.083 381.353L314.981 376.322ZM336.05 335.796L195.119 290.61L337.036 340.022L336.05 335.796ZM335.499 367.77L222.73 312.267L335.6 372.802L335.499 367.77Z" fill="#200653"/>
<path d="M135.675 270.675H134.325V269.325H135.675V270.675Z" fill="#252525"/>
<path d="M263.813 404.7C260.848 398.293 252.75 388.799 243.752 386.176C232.629 382.932 207.522 379.01 198.212 376.83C190.75 375.08 175.719 361.583 170.451 357.052C169.506 356.242 168.732 354.569 168.714 353.326C168.526 338.66 174.377 299.699 174.377 299.699H135H95.6246C95.6246 299.699 101.475 338.658 101.285 353.326C101.27 354.569 100.493 356.242 99.5503 357.052C94.2826 361.583 79.2517 375.08 71.7889 376.83C62.478 379.01 37.3707 383.065 26.2494 386.309C17.249 388.931 9.153 398.292 6.1884 404.699C1.1826 415.51 0 435.074 0 451.949H135H270C270 435.075 268.816 415.511 263.813 404.7Z" fill="#F0C7B1"/>
<path d="M214.861 383.478C247.722 388.26 261.552 395.234 265.882 451.952H270C270 435.077 268.816 415.512 263.813 404.702C260.848 398.294 252.75 388.8 243.752 386.177C232.629 382.933 207.522 379.011 198.212 376.831C190.75 375.081 173.586 360.538 168.994 354.758C173.53 361.109 186.262 375.825 197.417 379.679C202.754 381.523 207.198 382.363 214.861 383.478ZM72.5841 379.679C83.7391 375.826 96.4696 361.109 101.007 354.758C96.417 360.536 79.2531 375.081 71.7889 376.831C62.4793 379.011 37.372 383.066 26.2494 386.311C17.2516 388.932 9.15299 398.293 6.18839 404.7C1.18529 415.511 0.00134277 435.075 0.00134277 451.95H4.11884C8.42264 395.596 22.3101 388.253 55.1407 383.477C62.802 382.363 67.2475 381.523 72.5841 379.679Z" fill="#FFE4D6"/>
<path d="M129.122 401.787C129.122 401.787 122.272 399.615 119.56 398.575C105.454 393.163 59.6268 389.656 59.6268 389.656C59.6268 389.656 107.895 391.571 118.546 393.407C117.928 386.972 114.473 366.402 114.473 366.402C114.473 366.402 121.424 389.102 123.125 394.829C124.035 397.891 129.122 401.787 129.122 401.787ZM143.701 399.975C143.581 400.074 143.443 400.202 143.293 400.337C143.446 400.222 143.583 400.102 143.701 399.975ZM129.122 401.787C129.122 401.787 133.028 405.826 134.991 405.877C137.569 405.946 141.508 401.964 143.294 400.337C141.587 401.629 137.68 402.215 136.126 402.276C134.33 402.344 129.122 401.787 129.122 401.787ZM157.496 391.636C155.411 391.971 151.575 392.701 151.575 392.701L154.663 372.6C153.791 376.746 148.623 394.485 143.701 399.975C146.279 397.794 152.014 396.747 154.938 396.325C168.757 394.321 168.751 394.323 210.372 389.656C210.372 389.656 171.126 389.447 157.496 391.636Z" fill="#E1AC8F"/>
<path d="M263.813 404.7C260.848 398.293 252.75 388.799 243.752 386.176C232.629 382.932 207.522 379.01 198.212 376.83C190.75 375.08 175.719 361.583 170.451 357.052C169.506 356.242 168.732 354.569 168.714 353.326C168.526 338.66 174.377 299.699 174.377 299.699H135H95.6246C95.6246 299.699 101.475 338.658 101.285 353.326C101.27 354.569 100.493 356.242 99.5503 357.052C94.2826 361.583 79.2517 375.08 71.7889 376.83C62.478 379.01 37.3707 383.065 26.2494 386.309C17.249 388.931 9.153 398.292 6.1884 404.699C1.1826 415.51 0 435.074 0 451.949H135H270C270 435.075 268.816 415.511 263.813 404.7Z" stroke="#C27B55" stroke-width="4.5"/>
<path d="M158.134 364.152C161.529 362.708 165.177 360.064 168.835 356.701C168.168 355.694 167.717 354.428 167.7 353.339C167.574 343.49 170.096 323.141 171.823 310.473C150.521 307.874 119.482 307.885 98.1815 310.492C99.9068 323.16 102.427 343.494 102.299 353.338C102.286 354.403 101.829 355.68 101.165 356.693C104.826 360.058 108.477 362.706 111.873 364.15C121.921 368.424 148.086 368.424 158.134 364.152Z" fill="url(#paint0_linear)"/>
<path d="M57.7395 453.272L59.5255 371.122C59.5255 371.122 73.2875 367.764 81.9828 362.599C105.602 392.236 175.742 385.999 187.736 361.762C189.747 362.471 191.41 363.378 193.49 364.075C200.24 368.646 205.928 370.142 205.928 370.142L207.19 453.416C187.904 453.67 57.7395 453.272 57.7395 453.272Z" fill="#F5F4F5"/>
<path d="M207.919 374.902C202.2 373.931 197.644 372.611 195.159 370.117C187.946 383.651 159.029 392.228 149.454 393.484C177.202 385.012 188.858 378.887 193.462 364.347C196.148 367.564 202.266 369.139 210.084 370.474L207.919 374.902ZM71.1045 370.414C73.0674 369.993 74.0475 368.748 75.9956 368.264L73.9328 365.743C69.7289 368.759 61.8219 370.205 52.4678 371.716L52.7216 376.762C58.0622 375.696 63.2745 374.348 68.1507 372.276C78.2528 383.731 94.0275 389.366 110.082 391.698C89.9424 386.859 78.3945 378.69 71.1045 370.414Z" fill="white"/>
<path d="M186.112 364.574C178.108 379.912 117.613 397.777 83.5003 365.743C81.3794 366.574 75.0344 368.558 75.0344 368.558C99.8825 399.716 172.7 399.914 192.082 368.407C191.998 368.374 188.083 365.495 186.112 364.574Z" fill="#DFDDE2"/>
<path d="M187.661 361.585C174.043 386.662 103.181 390.211 82.0382 362.429C74.3162 364.53 66.8925 369.012 59.4176 370.134L57.7395 453.272L207.189 453.416L206.034 369.195C201.486 368.241 197.258 365.5 193.541 363.938C191.487 363.076 189.743 362.299 187.661 361.585ZM81.5265 363.267C100.296 394.434 174.429 388.182 188.742 363.401C190.478 364.075 190.922 364.341 192.935 364.998C178.11 393.629 104.772 402.754 74.7765 366.547C74.9871 366.493 79.4111 363.999 81.5265 363.267ZM73.2875 367.764C97.5375 404.276 177.588 398.62 194.225 366.027C196.615 367.905 200.34 370.062 204.938 371.069L207.179 450.827L58.1702 450.849L60.7406 372.145C64.499 370.256 70.5335 368.863 73.2875 367.764Z" fill="#B8B6C9"/>
<path d="M-6.11419 453.014C-9.58909 434.314 -9.20839 388.765 6.05336 388.861C23.787 381.691 45.5665 373.465 63.8361 368.191C73.1619 358.409 81.9747 349.106 99.1899 339.417C99.715 342.926 101.72 350.947 99.2047 355.311C97.3755 358.486 91.3977 362.838 86.3068 366.607C83.5677 370.279 81.0054 373.862 77.3982 378.877C84.375 408.984 90.3595 424.48 91.0291 450.593C91.0291 450.593 89.0689 451.524 178.065 451.129C181.055 420.972 184.806 405.822 192.077 378.097C192.077 378.097 186.261 371.328 182.347 366.123C179.574 363.427 171.061 355.954 170.413 354.444C168.827 350.743 169.673 346.09 170.562 339.098C185.132 345.677 193.512 355.327 205.772 367.857C216.207 370.718 247.433 381.313 263.073 388.399C268.426 388.251 271.447 391.098 273.7 395.778C280.997 410.891 279.27 432.629 276.643 453.543C250.871 453.585 67.3474 456.529 -6.11419 453.014Z" fill="#AAAAAA"/>
<path d="M99.7313 343.009C99.9473 344.454 100.142 345.824 100.286 347.115C99.9918 347.474 77.0499 378.641 76.8825 378.873C82.5201 366.05 90.585 352.762 99.7313 343.009ZM170.172 343.009C169.957 344.454 169.923 345.824 169.779 347.115C170.073 347.474 192.636 377.448 192.802 377.681C186.828 365.734 179.318 352.762 170.172 343.009ZM222.761 384.958C216.983 393.37 215.749 396.274 209.424 404.61C210.87 404.61 213.203 404.834 214.649 404.834C219.595 396.349 219.605 392.031 222.761 384.958ZM228.682 446.012C233.802 433.997 238.043 423.452 243.18 411.419L241.496 408.7C237.218 421.06 232.678 433.619 228.682 446.012ZM55.4148 404.834C56.8607 404.834 59.1935 404.61 60.6407 404.61C54.3159 396.274 53.082 395.752 47.3054 387.341C50.459 394.413 50.4684 396.349 55.4148 404.834ZM28.5674 408.7L26.8839 411.419C32.022 423.452 33.3167 433.997 38.4386 446.012C34.4412 433.619 32.8455 421.06 28.5674 408.7Z" fill="#9B8B8B"/>
<path d="M88.6113 363.532C90.2057 361.31 95.6813 353.715 100.223 346.575C101.556 353.942 99.1076 358.312 88.6113 363.532ZM169.749 346.086C173.196 352.021 177.258 357.928 181.445 363.37C170.1 358.204 169.337 352.921 169.749 346.086Z" fill="#8B7070"/>
<path d="M170.529 339.335C170.54 339.252 170.552 339.175 170.56 339.1C194.986 352.598 209.138 372.877 225.569 387.993C224.964 388.966 223.911 389.603 223.291 390.564C206.086 377.472 197.909 357.677 170.529 339.335ZM96.8437 340.23C76.5478 351.317 47.917 385.262 45.1144 387.843C45.7192 388.82 46.0472 388.622 46.6669 389.582C63.874 376.491 68.5706 363.532 96.8437 340.23ZM263.073 388.4C261.723 387.322 229.801 374.848 205.577 368.192C251.069 390.196 267.119 393.228 275.063 401.026C274.546 399.677 273.491 388.11 263.073 388.4ZM64.0684 367.949C45.811 373.233 22.4357 381.582 6.0521 388.862C-1.1893 389.005 -6.3787 399.568 -7.48975 410.576C2.58395 387.878 -2.39349 403.137 64.0684 367.949Z" fill="#B9B9B9"/>
<path d="M278.91 418.584C278.451 406.926 274.786 387.395 263.127 388.263C262.163 387.439 235.018 375.077 206.042 367.188C196.116 357.124 183.747 343.431 170.442 338.896C169.482 347.574 168.448 353.236 170.733 356.06C173.759 359.352 177.389 362.646 180.95 364.864C187.182 373.148 191.938 378.065 191.938 378.065C184.607 406.014 180.037 420.339 177.124 450.544H92.8773C89.9654 420.34 85.3943 406.015 78.0638 378.065C78.0638 378.065 82.8185 373.147 89.0514 364.864C92.6141 362.645 96.2429 359.352 99.2682 356.06C101.552 353.236 100.52 347.574 99.5598 338.896C86.2542 343.431 73.8842 357.124 63.959 367.188C34.9839 375.079 7.83812 387.439 6.87422 388.263C-4.78573 387.395 -8.45098 406.926 -8.90863 418.584C-9.46348 432.741 -6.97138 452.25 -6.76888 453.6H276.77C276.973 452.249 279.465 432.741 278.91 418.584ZM98.5284 355.312C95.4801 358.326 93.5901 359.606 89.7899 362.443C96.309 353.977 95.6502 355.108 100.196 347.283C100.4 350.648 99.1346 354.714 98.5284 355.312ZM-4.28218 450.938C-5.74288 433.598 -8.21878 417.984 -3.70168 400.999C-1.97233 394.482 -0.348279 390.07 6.36257 389.511C7.80302 396.988 17.3408 428.289 25.6649 449.631C17.2598 416.972 18.495 424.237 14.5692 411.221C13.2678 406.854 12.0663 402.465 10.5476 398.164C9.49052 395.175 8.32007 392.241 7.49387 389.182L62.0784 369.114C61.7018 369.496 44.6702 387.25 44.2598 387.75C46.7532 391.828 54.8114 397.499 58.9005 403.623C42.1119 405.208 33.9147 407.907 27.8505 408.807C28.2974 410.048 40.0829 443.033 41.3181 446.143C39.3215 435.455 34.8165 418.742 29.6582 409.408C31.5617 409.166 54.0621 406.043 61.2387 404.714C59.2461 400.861 50.3807 393.324 45.6341 387.678C73.5062 363.159 79.9538 350.685 99.0847 339.815C99.2872 341.852 99.6827 343.88 99.8271 345.916C78.5039 377.685 76.001 377.731 76.001 377.731C82.1907 401.775 90.2192 426.094 90.2192 450.73L-4.28218 450.938ZM171.472 355.312C170.867 354.714 169.601 350.648 169.804 347.283C174.35 355.109 173.691 353.977 180.21 362.443C176.41 359.606 174.519 358.328 171.472 355.312ZM274.282 450.938L179.782 450.73C179.782 426.094 187.811 401.773 194 377.731C194 377.731 191.498 377.685 170.174 345.916C170.317 343.88 170.713 341.852 170.917 339.815C190.048 350.685 196.494 363.159 224.367 387.678C219.621 393.325 210.755 400.862 208.763 404.714C215.938 406.042 238.438 409.166 240.343 409.408C235.186 418.742 230.681 435.455 228.683 446.143C229.919 443.032 241.704 410.048 242.151 408.807C236.087 407.907 227.89 405.208 211.101 403.623C215.189 397.499 223.248 391.829 225.742 387.75C225.33 387.25 208.3 369.496 207.923 369.114C207.924 369.114 262.508 389.182 262.508 389.182C261.683 392.242 260.511 395.175 259.454 398.164C257.935 402.465 256.734 406.854 255.432 411.221C251.506 424.239 252.742 416.972 244.337 449.631C252.661 428.287 262.197 396.988 263.639 389.511C270.35 390.07 271.974 394.482 273.703 400.999C278.219 417.984 275.743 433.6 274.282 450.938Z" fill="#7C5757"/>
<path d="M61.6559 248.864C59.6512 245.541 53.1145 236.446 48.1141 237.721C44.0479 238.764 44.1005 244.432 43.786 247.786C43.327 252.705 43.1596 261.275 44.4947 264.753C45.7786 268.091 49.8407 274.543 52.3625 277.004C55.4662 280.021 60.422 289.637 61.0322 290.635C61.9921 292.212 63.9172 294.469 66.871 294.291C71.0168 294.041 74.5984 290.123 74.9237 288.236C76.6801 277.989 66.8737 257.512 61.6559 248.864Z" fill="#F0C7B1" stroke="#C27B55" stroke-width="4.5"/>
<path d="M59.6701 269.11C59.4771 268.35 59.6796 267.068 59.878 265.831C60.0576 264.704 60.2263 263.639 60.1237 262.886C59.7336 260.064 57.5385 254.705 56.1061 251.799C54.4551 248.457 51.7875 244.246 48.4395 243.161C47.0571 242.711 46.1458 243.248 45.6193 243.792C45.2305 244.192 45.1428 244.663 45.2697 244.72C45.3979 244.775 45.6841 244.385 46.1026 244.019C46.4455 243.72 45.4168 243.965 46.1026 244.019C45.8259 245.423 44.9349 252.527 45.5491 257.712C46.0324 261.792 46.9666 264.839 47.2542 265.295C47.296 265.776 47.3662 266.247 47.4702 266.703C48.8229 272.657 57.6195 280.442 59.6661 282.66C60.0441 283.069 60.441 283.312 60.5382 283.212C60.6354 283.113 60.4018 282.709 60.0265 282.297C58.0042 280.094 49.2657 272.333 47.9589 266.59C46.5724 260.496 53.2401 251.46 54.3025 249.549C54.8439 250.447 55.3042 251.308 55.6579 252.026C55.9374 252.589 56.2438 253.249 56.5624 253.963C55.9374 254.96 49.6531 262.235 51.2515 268.059C51.8428 270.207 56.4112 272.975 58.1784 273.733C59.1504 274.151 59.5149 274.775 59.9388 275.496C60.4302 276.338 59.9833 278.505 61.5993 279.194C61.9287 279.334 62.2257 279.391 62.4889 279.391C62.9452 279.391 63.2908 279.215 63.546 279.007C63.573 279.373 63.5716 279.843 63.5581 280.278C63.5419 280.842 63.6216 281.1 63.7579 281.111C63.897 281.123 64.0414 280.876 64.059 280.318C64.0819 279.63 64.0779 278.778 63.955 278.369C63.5919 277.169 62.4862 275.812 61.3131 274.377C60.1602 272.966 59.9698 270.288 59.6701 269.11ZM47.2083 263.833C44.0385 254.487 48.9403 245.974 49.6518 244.692C51.018 245.23 53.1105 247.652 54.0001 249.059C53.3521 250.183 47.3406 257.546 47.2083 263.833ZM61.7923 278.726C60.3289 278.103 60.8392 276.048 60.3667 275.238C59.9374 274.506 59.4946 273.75 58.3701 273.267C58.1271 273.162 57.8584 273.002 57.583 272.819C53.9623 264.618 57.9786 261.033 58.9857 260.3C59.2948 261.302 59.5243 262.221 59.6283 262.96C59.7201 263.635 59.5486 264.712 59.3839 265.752C59.1774 267.041 58.9654 268.376 59.1855 269.24C59.5149 270.527 59.7403 273.249 60.9283 274.705C61.9827 275.995 63.0654 277.326 63.4353 278.412C63.276 278.628 62.7751 279.146 61.7923 278.726Z" fill="#C27B55"/>
<path d="M207.989 248.864C209.995 245.541 216.532 236.446 221.531 237.721C225.597 238.764 225.545 244.432 225.86 247.786C226.32 252.705 226.486 261.275 225.152 264.753C223.868 268.091 219.804 274.543 217.284 277.004C214.18 280.021 209.223 289.637 208.614 290.635C207.654 292.212 205.729 294.469 202.774 294.291C198.63 294.041 195.048 290.123 194.721 288.236C192.966 277.989 202.774 257.512 207.989 248.864Z" fill="#F0C7B1" stroke="#C27B55" stroke-width="4.5"/>
<path d="M208.335 274.378C207.162 275.813 206.056 277.17 205.693 278.37C205.569 278.78 205.566 279.632 205.588 280.319C205.606 280.877 205.751 281.124 205.891 281.112C206.029 281.101 206.107 280.843 206.091 280.279C206.078 279.844 206.075 279.374 206.102 279.009C206.357 279.216 206.703 279.392 207.159 279.392C207.422 279.392 207.721 279.335 208.05 279.195C209.663 278.505 209.218 276.338 209.709 275.497C210.133 274.776 210.498 274.151 211.471 273.734C213.238 272.977 217.806 270.209 218.398 268.06C219.996 262.236 213.712 254.96 213.087 253.965C213.403 253.251 213.712 252.59 213.989 252.027C214.345 251.309 214.804 250.447 215.347 249.55C216.409 251.462 223.075 260.496 221.69 266.591C220.382 272.334 211.645 280.095 209.623 282.299C209.246 282.71 209.011 283.114 209.108 283.214C209.208 283.314 209.604 283.071 209.98 282.662C212.027 280.444 220.822 272.658 222.175 266.705C222.28 266.248 222.352 265.777 222.394 265.297C222.679 264.842 223.614 261.795 224.097 257.714C224.712 252.528 223.821 245.425 223.544 244.021C224.23 243.967 223.201 243.721 223.544 244.021C223.964 244.386 224.25 244.777 224.377 244.721C224.504 244.665 224.416 244.195 224.029 243.794C223.501 243.25 222.589 242.712 221.207 243.162C217.859 244.247 215.19 248.458 213.539 251.801C212.107 254.706 209.913 260.065 209.523 262.887C209.42 263.64 209.589 264.705 209.769 265.833C209.966 267.069 210.169 268.352 209.976 269.112C209.677 270.288 209.488 272.966 208.335 274.378ZM215.646 249.059C216.537 247.652 218.629 245.232 219.995 244.692C220.706 245.974 225.608 254.487 222.44 263.833C222.307 257.546 216.296 250.183 215.646 249.059ZM206.213 278.409C206.581 277.324 207.665 275.993 208.72 274.702C209.906 273.247 210.133 270.524 210.462 269.237C210.681 268.373 210.471 267.038 210.265 265.749C210.099 264.709 209.928 263.632 210.02 262.957C210.122 262.219 210.352 261.299 210.661 260.298C211.668 261.031 215.684 264.616 212.064 272.816C211.789 273 211.521 273.159 211.275 273.264C210.152 273.748 209.709 274.504 209.278 275.235C208.806 276.045 209.318 278.101 207.854 278.724C206.871 279.146 206.371 278.628 206.213 278.409Z" fill="#C27B55"/>
<path d="M195.394 306.688C189.252 320.035 171.674 344.895 158.132 350.652C148.086 354.924 121.92 354.924 111.872 350.652C98.3327 344.894 80.7543 320.034 74.6105 306.688C67.469 291.175 55.5512 241.047 55.535 240.974C53.78 234.229 52.8404 227.151 52.8296 219.853C52.7607 173.888 89.4902 136.578 134.874 136.507C180.263 136.435 217.107 173.625 217.175 219.59C217.187 226.89 216.271 233.971 214.539 240.721C214.516 240.793 202.561 291.115 195.394 306.688Z" fill="#F0C7B1"/>
<path d="M148.705 137.678C185.147 146.247 212.286 179.335 212.225 218.846C212.213 226.145 211.275 233.223 209.52 239.968C209.504 240.041 197.157 290.212 190.085 305.682C184.122 318.721 168.156 342.498 155.165 348.64C150.887 350.664 139.722 351.144 135.003 351.144C130.286 351.144 119.12 350.664 114.843 348.64C101.852 342.498 85.8843 318.721 79.9227 305.682C72.8501 290.212 60.503 240.041 60.4881 239.968C58.7331 233.225 57.7935 226.145 57.7827 218.846C57.7206 179.335 84.857 146.247 121.302 137.678C82.3905 144.295 52.7675 178.573 52.8309 219.853C52.8417 227.151 53.7813 234.229 55.5363 240.974C55.5525 241.046 67.3907 291.211 74.6118 306.688C80.8245 320.001 98.5581 344.375 111.873 350.652C116.829 352.99 129.542 353.857 135.004 353.857C140.462 353.857 153.18 352.988 158.134 350.652C171.447 344.375 189.184 320.001 195.395 306.688C202.617 291.211 214.456 241.046 214.47 240.974C216.225 234.229 217.165 227.151 217.176 219.853C217.239 178.573 187.616 144.295 148.705 137.678Z" fill="#E8B9A0"/>
<path d="M195.394 306.688C189.252 320.035 171.674 344.895 158.132 350.652C148.086 354.924 121.92 354.924 111.872 350.652C98.3327 344.894 80.7543 320.034 74.6105 306.688C67.469 291.175 55.5512 241.047 55.535 240.974C53.78 234.229 52.8404 227.151 52.8296 219.853C52.7607 173.888 89.4902 136.578 134.874 136.507C180.263 136.435 217.107 173.625 217.175 219.59C217.187 226.89 216.271 233.971 214.539 240.721C214.516 240.793 202.561 291.115 195.394 306.688Z" stroke="#C27B55" stroke-width="4.5"/>
<path d="M135.27 327.978C131.447 328.173 130.351 324.262 130.351 324.262C130.351 324.262 135.658 325.025 139.789 323.785C139.79 323.787 138.634 327.81 135.27 327.978Z" fill="url(#paint1_linear)"/>
<path d="M135.659 325.026C132.981 325.161 130.576 324.922 130.425 324.906C130.239 324.887 130.104 324.722 130.123 324.539C130.143 324.352 130.316 324.224 130.493 324.236C130.548 324.24 136.022 324.783 139.589 323.781C139.766 323.738 139.955 323.837 140.006 324.016C140.057 324.196 139.952 324.381 139.772 324.432C138.512 324.786 137.048 324.956 135.659 325.026Z" fill="#C27B55"/>
<path d="M111.375 310.904C111.375 310.904 128.293 312.91 133.944 312.927C140.091 312.943 159.975 310.904 159.975 310.904C154.227 315.674 147.902 320.262 133.576 320.352C120.762 320.435 117.478 315.781 111.375 310.904Z" fill="white"/>
<path d="M111.375 310.904C111.375 310.904 128.293 312.91 133.944 312.927C140.091 312.943 159.975 310.904 159.975 310.904C154.227 315.674 147.902 320.262 133.576 320.352C120.762 320.435 117.478 315.781 111.375 310.904Z" stroke="#C27B55" stroke-width="2.25"/>
<path d="M83.3653 246.406C82.6822 243.321 90.3732 241.043 100.525 242.287C110.674 243.533 117.721 249.745 116.795 252.877C116.282 254.613 102.433 257.257 97.5538 256.72C92.6074 256.173 85.015 253.854 83.3653 246.406Z" fill="url(#paint2_radial)"/>
<path d="M110.005 252.148C108.539 259.004 102.981 263.043 97.5821 261.16C92.1875 259.278 89.0015 252.187 90.469 245.329C91.9337 238.467 97.5038 234.427 102.9 236.312C108.29 238.193 111.472 245.284 110.005 252.148Z" fill="#2F4EC1" stroke="#001F93" stroke-width="1.5"/>
<path d="M109.763 249.535C109.017 257.148 104.574 261.114 99.7179 260.701C95.2318 260.316 91.2223 256.106 90.8484 248.833C92.4009 248.266 94.461 249.188 96.2673 248.836C96.2632 248.92 96.2403 248.994 96.2389 249.079C96.0918 251.871 97.8522 254.303 100.165 254.502C102.487 254.699 104.481 252.586 104.624 249.796C104.64 249.433 104.622 249.075 104.579 248.731C106.19 249.041 108.161 248.736 109.763 249.535Z" fill="#4865D0"/>
<path opacity="0.9" d="M101.701 244.436C99.4735 243.626 97.2001 245.245 96.625 248.068C96.0499 250.877 97.3905 253.819 99.618 254.63C101.845 255.444 104.118 253.823 104.699 251.012C105.277 248.191 103.933 245.25 101.701 244.436Z" fill="black"/>
<path d="M101.701 244.436C99.4735 243.626 97.2001 245.245 96.625 248.068C96.0499 250.877 97.3905 253.819 99.618 254.63C101.845 255.444 104.118 253.823 104.699 251.012C105.277 248.191 103.933 245.25 101.701 244.436Z" stroke="#001F93" stroke-width="2.25"/>
<path opacity="0.5" d="M95.4465 256.592C95.2345 257.53 94.0857 257.13 94.2936 256.189C94.5001 255.281 95.0523 254.723 95.3979 253.923C95.7705 253.068 96.8005 253.832 96.4266 254.688C96.1404 255.348 95.6098 255.856 95.4465 256.592ZM97.2771 255.096C96.9612 255.566 96.5454 257.307 96.3658 257.877C96.081 258.784 97.2325 259.174 97.5147 258.279C97.6132 257.97 97.9467 256.426 98.1222 256.169C98.6163 255.431 97.7806 254.353 97.2771 255.096ZM99.7597 259.579C100.379 258.667 100.317 257.622 100.304 256.485C100.294 255.509 99.105 255.508 99.1131 256.485C99.1225 257.113 99.2683 257.989 98.916 258.507C98.4151 259.242 99.2535 260.319 99.7597 259.579ZM100.973 256.296C100.986 257.237 101.073 258.155 101.292 259.056C101.52 259.987 102.67 259.59 102.445 258.653C102.253 257.876 102.175 257.109 102.168 256.296C102.156 255.319 100.967 255.319 100.973 256.296Z" fill="white"/>
<path opacity="0.8" d="M107.32 246.529C106.148 247.424 104.385 246.618 103.383 244.728C102.387 242.835 102.533 240.574 103.71 239.682C104.882 238.781 106.646 239.59 107.638 241.481C108.641 243.374 108.497 245.632 107.32 246.529Z" fill="white"/>
<path d="M71.947 247.05C73.0392 261.764 87.657 278.887 99.6301 277.069C113.802 277.212 127.797 266.447 127.797 246.957C127.797 227.467 120.929 211.144 99.2751 211.144C83.7501 211.143 71.947 227.56 71.947 247.05ZM83.3653 246.406C82.6822 243.321 90.3732 241.042 100.525 242.287C110.674 243.533 117.721 249.745 116.795 252.877C116.282 254.613 102.433 257.257 97.5538 256.72C92.6074 256.173 85.015 253.854 83.3653 246.406Z" fill="#F0C7B1"/>
<path d="M97.5539 256.72C102.433 257.257 116.282 254.613 116.795 252.877C117.723 249.745 110.675 243.533 100.525 242.287C91.8042 241.218 84.9152 242.752 83.5746 245.16C84.7869 236.52 93.9696 229.774 105.157 229.724C117.187 229.674 126.957 237.387 126.989 246.957C127.018 256.526 117.29 264.321 105.261 264.375C93.2285 264.425 83.4599 256.712 83.4275 247.143C83.4275 247.001 83.4491 246.862 83.4531 246.721C85.2486 253.912 92.679 256.181 97.5539 256.72Z" fill="url(#paint3_radial)"/>
<path d="M83.3653 246.406C82.6822 243.321 90.3732 241.043 100.525 242.287C110.674 243.533 117.721 249.745 116.795 252.877C116.282 254.613 102.433 257.257 97.5538 256.72C92.6074 256.173 85.015 253.854 83.3653 246.406Z" fill="url(#paint4_radial)"/>
<path d="M83.8999 239.513C89.5807 236.843 96.5224 236.597 102.581 238.156C105.827 238.914 109.284 239.891 112.116 241.718C114.742 243.25 116.875 245.093 118.869 247.374C117.057 245.078 115.125 243.165 112.628 241.61C109.555 239.698 106.19 238.513 102.687 237.673C96.4954 236.153 89.5618 236.498 83.8999 239.513Z" fill="#C27B55"/>
<path d="M84.7383 240.327C85.9263 239.852 90.226 238.977 92.1039 238.888C94.3813 238.777 98.9524 239.057 101.196 239.46C105.751 240.281 113.685 242.812 116.961 249.159C117.969 251.109 117.061 252.474 116.795 252.77C117.2 249.495 110.264 243.663 100.525 242.505C90.3732 241.298 82.6822 243.508 83.3653 246.498C85.015 253.718 92.6074 255.965 97.5538 256.495C103.087 257.087 113.327 254.417 114.68 254.128C111.981 255.49 104.523 256.956 101.494 257.237C100.49 257.332 98.4705 257.378 97.4634 257.352C89.4322 257.139 83.7352 253.066 81.6292 247.551C80.2765 244.006 81.7561 241.518 84.7383 240.327Z" fill="black"/>
<path d="M186.096 246.406C186.779 243.321 179.088 241.043 168.936 242.287C158.787 243.533 151.74 249.745 152.666 252.877C153.179 254.613 167.029 257.257 171.908 256.72C176.854 256.173 184.446 253.854 186.096 246.406Z" fill="url(#paint5_radial)"/>
<path d="M179.53 252.148C178.064 259.004 172.507 263.043 167.109 261.16C161.713 259.278 158.528 252.187 159.994 245.329C161.46 238.467 167.03 234.427 172.425 236.312C177.815 238.193 180.997 245.284 179.53 252.148Z" fill="#2F4EC1" stroke="#001F93" stroke-width="1.5"/>
<path d="M179.288 249.535C178.542 257.148 174.099 261.114 169.244 260.701C164.76 260.316 160.747 256.106 160.375 248.833C161.929 248.266 163.989 249.188 165.794 248.836C165.79 248.92 165.768 248.994 165.765 249.079C165.62 251.871 167.379 254.303 169.692 254.502C172.014 254.699 174.008 252.586 174.15 249.796C174.168 249.433 174.149 249.075 174.107 248.731C175.715 249.041 177.686 248.736 179.288 249.535Z" fill="#4865D0"/>
<path opacity="0.9" d="M171.226 244.436C168.999 243.626 166.724 245.245 166.15 248.068C165.574 250.877 166.915 253.819 169.143 254.63C171.37 255.444 173.644 253.823 174.226 251.012C174.802 248.191 173.456 245.25 171.226 244.436Z" fill="black"/>
<path d="M171.226 244.436C168.999 243.626 166.724 245.245 166.15 248.068C165.574 250.877 166.915 253.819 169.143 254.63C171.37 255.444 173.644 253.823 174.226 251.012C174.802 248.191 173.456 245.25 171.226 244.436Z" stroke="#001F93" stroke-width="2.25"/>
<path opacity="0.5" d="M164.972 256.592C164.76 257.53 163.611 257.13 163.819 256.189C164.025 255.281 164.577 254.723 164.922 253.923C165.294 253.068 166.324 253.832 165.95 254.688C165.665 255.348 165.134 255.856 164.972 256.592ZM166.802 255.096C166.486 255.566 166.07 257.307 165.891 257.877C165.606 258.784 166.758 259.174 167.04 258.279C167.137 257.97 167.472 256.426 167.646 256.169C168.143 255.431 167.306 254.353 166.802 255.096ZM169.285 259.579C169.906 258.667 169.844 257.622 169.829 256.485C169.819 255.509 168.629 255.508 168.638 256.485C168.649 257.113 168.793 257.989 168.441 258.507C167.94 259.242 168.779 260.319 169.285 259.579ZM170.498 256.296C170.511 257.237 170.598 258.155 170.817 259.056C171.047 259.987 172.195 259.59 171.97 258.653C171.777 257.876 171.699 257.109 171.693 256.296C171.682 255.319 170.492 255.319 170.498 256.296Z" fill="white"/>
<path opacity="0.8" d="M176.845 246.529C175.673 247.424 173.91 246.618 172.908 244.728C171.912 242.835 172.058 240.574 173.236 239.682C174.407 238.781 176.171 239.59 177.163 241.481C178.166 243.374 178.022 245.632 176.845 246.529Z" fill="white"/>
<path d="M170.185 211.143C148.531 211.143 141.664 227.466 141.664 246.956C141.664 266.445 155.658 277.212 169.83 277.067C181.803 278.886 196.421 261.762 197.513 247.049C197.515 227.56 185.71 211.143 170.185 211.143ZM171.908 256.72C167.029 257.257 153.179 254.613 152.666 252.877C151.739 249.745 158.787 243.533 168.936 242.287C179.088 241.043 186.779 243.323 186.096 246.406C184.447 253.854 176.854 256.173 171.908 256.72Z" fill="#F0C7B1"/>
<path d="M171.908 256.72C167.029 257.257 153.179 254.613 152.666 252.877C151.739 249.745 158.787 243.533 168.936 242.287C177.657 241.218 184.546 242.753 185.887 245.16C184.675 236.52 175.492 229.774 164.305 229.724C152.275 229.674 142.505 237.387 142.472 246.957C142.444 256.526 152.172 264.321 164.201 264.375C176.233 264.425 186.002 256.712 186.034 247.143C186.034 247.001 186.012 246.862 186.008 246.721C184.212 253.912 176.781 256.181 171.908 256.72Z" fill="url(#paint6_radial)"/>
<path d="M186.096 246.406C186.779 243.321 179.088 241.043 168.936 242.287C158.787 243.533 151.74 249.745 152.666 252.877C153.179 254.613 167.029 257.257 171.908 256.72C176.854 256.173 184.446 253.854 186.096 246.406Z" fill="url(#paint7_radial)"/>
<path d="M185.56 239.513C179.88 236.843 172.938 236.597 166.879 238.156C163.634 238.914 160.176 239.891 157.344 241.717C154.718 243.25 152.585 245.092 150.591 247.374C152.403 245.078 154.335 243.165 156.832 241.609C159.905 239.698 163.271 238.513 166.774 237.673C172.966 236.153 179.9 236.498 185.56 239.513Z" fill="#C27B55"/>
<path d="M184.723 240.327C183.535 239.852 179.236 238.977 177.358 238.888C175.08 238.777 170.509 239.057 168.265 239.46C163.711 240.281 155.777 242.812 152.5 249.159C151.493 251.109 152.4 252.474 152.666 252.77C152.261 249.495 159.198 243.663 168.936 242.505C179.088 241.298 186.779 243.508 186.096 246.498C184.447 253.718 176.854 255.965 171.908 256.495C166.374 257.087 156.134 254.417 154.782 254.128C157.48 255.49 164.939 256.956 167.967 257.237C168.972 257.332 170.991 257.377 171.998 257.352C180.029 257.139 185.726 253.066 187.832 247.551C189.185 244.006 187.705 241.518 184.723 240.327Z" fill="black"/>
<path d="M190.35 288.865C190.397 319.405 165.656 344.207 135.084 344.249C104.517 344.299 79.696 319.58 79.6487 289.034C79.6015 258.497 104.343 233.597 134.914 233.549C165.482 233.501 190.306 258.321 190.35 288.865Z" fill="url(#paint8_radial)"/>
<path d="M185.625 207.899C185.625 235.858 162.96 258.524 135.001 258.524C107.042 258.524 84.3751 235.858 84.3751 207.899C84.3751 179.939 107.042 157.274 135.001 157.274C162.96 157.274 185.625 179.939 185.625 207.899Z" fill="url(#paint9_radial)"/>
<path d="M72.9 235.155C86.3379 221.69 95.5274 227.17 114.195 230.749C115.336 230.967 122.727 232.826 121.364 235.432C120.712 236.679 118.615 236.531 117.445 236.509C98.9658 236.164 89.9802 223.016 72.9 235.155Z" fill="#2A232B"/>
<path d="M197.1 235.155C183.663 221.69 174.473 227.17 155.805 230.749C154.663 230.967 147.273 232.826 148.635 235.432C149.287 236.679 151.384 236.531 152.554 236.509C171.033 236.164 180.02 223.016 197.1 235.155Z" fill="#2A232B"/>
<path d="M136.485 297.872C135.849 298.562 135.33 298.48 134.729 297.764L128.046 289.68H144.45L136.485 297.872Z" fill="#E1AC8F"/>
<path d="M126.172 290.934L134.86 298.002C135.585 298.592 135.864 298.368 135.486 297.506L132.388 290.486C132.237 290.146 132.191 289.574 132.283 289.213L134.545 253.56L125.928 288.548C125.34 289.273 125.449 290.346 126.172 290.934Z" fill="#C27B55"/>
<path d="M96.7951 305.87C97.1461 307.463 96.9031 308.057 96.3496 309.245C96.7681 307.422 96.7816 307.395 96.7951 305.87ZM133.097 345.128C133.07 343.494 132.503 342.63 130.991 342.131C132.206 342.954 132.786 343.697 133.097 345.128ZM127.98 343.656C127.913 342.252 127.602 341.402 126.495 340.511C127.251 341.577 127.575 342.306 127.98 343.656ZM122.675 341.874C122.783 342.495 123.674 343.643 124.47 343.899C123.809 343.521 122.675 341.874 122.675 341.874ZM117.72 339.62C117.828 339.944 118.638 342.158 118.841 341.874C118.854 341.874 117.558 339.147 117.72 339.62ZM121.095 335.799C120.758 337.149 120.69 337.946 120.866 339.404C121.001 338.567 121.109 336.461 121.095 335.799ZM124.025 331.965C123.903 333.005 123.89 334.085 124.025 335.111C124.146 334.22 124.173 333.18 124.025 331.965ZM125.604 338.499C126.495 337.352 126.806 336.758 127.184 335.354C126.9 335.799 125.807 338.013 125.604 338.499ZM130.545 335.34C130.437 337.068 130.599 337.838 131.22 339.161C130.734 336.879 130.896 337.676 130.545 335.34ZM128.52 333.315C129.087 332.208 129.29 331.574 129.425 330.386C129.182 330.98 128.655 332.762 128.52 333.315ZM133.704 331.29C133.61 332.127 133.772 333.68 134.609 333.545C133.974 333.653 133.785 331.911 133.704 331.29ZM128.52 327.915C128.952 326.916 129.276 325.782 129.425 324.77C128.979 325.782 128.682 326.876 128.52 327.915ZM119.07 330.399C118.679 331.587 118.544 332.357 118.625 333.774C118.76 333.153 119.03 331.061 119.07 330.399ZM115.25 338.945C115.938 337.595 116.195 336.758 116.37 335.34C116.06 336.096 115.452 338.04 115.25 338.945ZM112.104 335.57C111.375 336.38 112.334 337.824 112.334 337.824C112.307 336.852 111.794 336.38 112.104 335.57ZM113.454 327.78C113.454 327.699 113.292 328.091 113.67 331.29C113.751 327.848 113.441 327.335 113.441 327.915C113.454 327.915 113.454 327.861 113.454 327.78ZM108.27 330.615C108.378 332.6 108.311 333.396 108.716 334.665C108.581 331.79 108.635 331.965 108.27 330.615ZM104.895 330.845C104.652 331.965 104.612 332.654 105.341 333.545C104.855 332.546 104.895 331.992 104.895 330.845ZM99.2791 327.915C99.3061 327.227 99.2656 326.417 99.0766 325.647C99.0766 325.526 98.9821 326.552 99.2791 327.915ZM101.601 328.712L102.425 324.77C101.858 325.728 101.601 328.712 101.601 328.712ZM106.245 323.865C105.503 324.567 105.084 326.106 105.125 327.011C105.273 326.417 105.854 324.459 106.245 323.865ZM109.85 327.699C110.187 326.255 110.255 325.404 110.079 323.879C109.931 324.783 109.836 326.957 109.85 327.699ZM109.62 316.224C109.35 317.102 109.296 317.507 109.391 318.479C109.418 318.371 109.62 316.305 109.62 316.224ZM106.029 319.815C106.65 318.965 106.029 316.67 106.029 316.67C106.029 316.67 106.205 319.41 106.029 319.815ZM101.075 318.249C101.304 319.37 101.696 320.598 102.195 321.624C101.979 320.504 101.588 319.316 101.075 318.249ZM96.5791 318.249C96.1741 320.693 96.4981 321.395 97.0246 322.745C96.7006 320.747 96.6061 320.49 96.5791 318.249ZM93.2041 315.549C92.6641 316.413 92.4751 318.465 93.4336 319.599C92.8801 318.56 92.9341 316.346 93.2041 315.549ZM94.3246 308.57C94.3246 308.57 93.6496 309.839 93.6496 311.715C93.8926 310.649 94.1626 309.42 94.3246 308.57ZM98.6041 311.945C98.6041 311.945 97.4836 312.026 97.9291 315.32C98.4286 311.189 98.6041 311.945 98.6041 311.945ZM104.22 313.295C104.585 312.161 104.828 310.932 104.895 309.69C104.517 310.851 104.301 312.08 104.22 313.295ZM101.52 304.965C100.899 306.383 100.791 306.923 100.845 308.34L101.52 304.965ZM106.92 302.724C106.016 303.507 105.732 305.573 105.8 306.774C106.421 303.102 106.92 302.724 106.92 302.724ZM112.995 302.94C111.915 303.804 111.483 304.425 111.2 306.086C111.726 304.803 111.848 304.344 112.995 302.94ZM116.829 306.545C117.693 305.694 118.854 302.049 118.854 302.049C118.611 301.577 117.113 306.072 116.829 306.545ZM123.579 302.049C122.823 302.225 121.649 305.613 121.325 306.329C121.73 305.748 123.579 302.049 123.579 302.049ZM127.845 301.82C127.197 303.156 126.846 303.858 126.495 305.424C127.143 304.142 127.454 303.089 127.845 301.82ZM133.245 301.145C132.219 303.453 132.665 302.792 131.45 305.195C132.219 304.236 132.8 303.399 133.245 301.145ZM173.205 305.87C172.854 307.463 173.097 308.057 173.651 309.245C173.232 307.422 173.219 307.395 173.205 305.87ZM139.671 341.874C138.159 342.374 137.66 342.792 137.646 344.426C137.957 342.981 138.456 342.684 139.671 341.874ZM143.532 341.159C142.425 342.05 141.993 343.17 141.926 344.574C142.331 343.224 142.79 342.212 143.532 341.159ZM145.53 343.899C146.327 343.643 147.231 342.495 147.326 341.874C147.326 341.874 146.192 343.521 145.53 343.899ZM151.146 341.874C151.349 342.158 152.159 339.957 152.267 339.62C152.442 339.147 151.146 341.874 151.146 341.874ZM149.121 339.39C149.297 337.932 149.229 337.136 148.892 335.786C148.892 336.461 149 338.567 149.121 339.39ZM145.976 335.124C146.111 334.085 146.097 333.005 145.976 331.979C145.827 333.18 145.854 334.22 145.976 335.124ZM142.83 335.34C143.208 336.744 143.519 337.352 144.41 338.486C144.194 338.013 143.1 335.799 142.83 335.34ZM138.78 339.174C139.401 337.838 139.563 337.082 139.455 335.354C139.104 337.676 139.266 336.879 138.78 339.174ZM140.576 330.399C140.711 331.587 140.9 332.222 141.48 333.329C141.345 332.762 140.819 330.98 140.576 330.399ZM136.755 332.195C137.579 332.33 137.754 330.777 137.66 329.94C137.565 330.561 137.376 332.303 136.755 332.195ZM140.576 324.77C140.724 325.782 141.048 326.916 141.48 327.915C141.318 326.876 141.021 325.782 140.576 324.77ZM151.376 333.774C151.457 332.357 151.322 331.587 150.93 330.399C150.971 331.061 151.241 333.153 151.376 333.774ZM153.63 335.34C153.806 336.744 154.076 337.595 154.751 338.945C154.548 338.04 153.941 336.096 153.63 335.34ZM157.68 337.824C157.68 337.824 158.639 336.393 157.91 335.57C158.207 336.38 157.694 336.852 157.68 337.824ZM156.546 327.915C156.546 327.335 156.249 327.848 156.317 331.29C156.695 328.091 156.533 327.699 156.533 327.78C156.546 327.861 156.546 327.915 156.546 327.915ZM161.271 334.665C161.676 333.396 161.609 332.6 161.717 330.615C161.366 331.965 161.42 331.79 161.271 334.665ZM164.646 333.545C165.375 332.654 165.335 331.965 165.092 330.845C165.105 331.992 165.146 332.546 164.646 333.545ZM170.924 325.661C170.735 326.43 170.694 327.24 170.721 327.929C171.018 326.552 170.924 325.526 170.924 325.661ZM167.576 324.77L168.399 328.712C168.399 328.712 168.143 325.728 167.576 324.77ZM164.876 327.024C164.916 326.12 164.484 324.581 163.755 323.879C164.147 324.459 164.727 326.417 164.876 327.024ZM159.921 323.865C159.732 325.391 159.8 326.241 160.151 327.686C160.164 326.957 160.07 324.783 159.921 323.865ZM160.596 318.465C160.691 317.493 160.637 317.088 160.367 316.211C160.38 316.305 160.583 318.371 160.596 318.465ZM163.971 316.67C163.971 316.67 163.35 318.965 163.971 319.815C163.796 319.41 163.971 316.67 163.971 316.67ZM167.805 321.624C168.305 320.598 168.71 319.37 168.926 318.249C168.413 319.316 168.021 320.504 167.805 321.624ZM172.976 322.745C173.516 321.395 173.84 320.679 173.421 318.249C173.394 320.49 173.3 320.747 172.976 322.745ZM176.58 319.599C177.539 318.465 177.35 316.413 176.81 315.549C177.066 316.346 177.12 318.56 176.58 319.599ZM176.351 311.715C176.351 309.825 175.676 308.57 175.676 308.57C175.838 309.42 176.108 310.649 176.351 311.715ZM172.071 315.32C172.517 312.026 171.396 311.945 171.396 311.945C171.396 311.945 171.572 311.189 172.071 315.32ZM165.105 309.69C165.173 310.919 165.416 312.161 165.78 313.295C165.699 312.08 165.483 310.851 165.105 309.69ZM169.155 308.34C169.209 306.923 169.101 306.383 168.48 304.965L169.155 308.34ZM164.201 306.774C164.268 305.573 163.971 303.507 163.08 302.724C163.08 302.724 163.58 303.102 164.201 306.774ZM158.801 306.099C158.517 304.425 158.085 303.804 157.005 302.954C158.153 304.344 158.274 304.803 158.801 306.099ZM151.146 302.049C151.146 302.049 152.307 305.694 153.171 306.545C152.888 306.072 151.389 301.577 151.146 302.049ZM148.676 306.315C148.352 305.6 147.191 302.211 146.421 302.036C146.421 302.049 148.271 305.748 148.676 306.315ZM143.505 305.424C143.154 303.872 142.803 303.156 142.155 301.82C142.547 303.089 142.857 304.142 143.505 305.424ZM138.551 305.195C137.322 302.792 137.781 303.453 136.755 301.145C137.201 303.399 137.768 304.236 138.551 305.195ZM135.689 337.041C134.312 339.174 134.366 340.106 134.406 341.456C134.798 339.525 134.771 339.539 135.689 337.041ZM132.206 325.283C132.894 327.2 132.975 327.402 133.313 328.779C133.272 327.308 132.975 326.525 132.206 325.283ZM136.067 328.158C136.404 326.781 137.12 327.2 137.808 325.283C137.025 326.525 136.094 326.7 136.067 328.158Z" fill="#2A232B"/>
<path d="M61.7989 256.923C57.7516 253.545 52.6878 244.855 50.4279 232.674C49.9473 230.178 49.6044 227.611 49.2399 224.894C47.713 213.492 44.4406 200.204 46.7046 186.59C49.4221 169.935 61.9204 151.905 77.8032 141.72C102.361 125.828 164.434 118.726 177.371 139.645C184.876 139.371 192.973 141.331 198.565 145.681C217.072 159.565 224.228 206.716 219.1 230.136C215.687 246.129 214.792 250.324 207.943 256.594C210.389 183.258 206.607 203.047 203.48 183.353C199.815 180.666 198.449 181.776 192.803 178.571C181.574 170.28 182.118 166.959 177.031 161.159C172.5 166.517 165.987 171.234 160.956 173.413C162.231 171.324 163.318 168.982 164.037 167.476L163.435 166.972C159.211 170.026 150.676 174.367 145.431 174.833C148.249 171.37 147.919 171.806 149.045 169.696C144.839 172.283 140.369 174.039 134.73 174.533C140.042 171.909 142.424 170.113 146.544 166.68L146.167 165.981C117.559 174.671 110.773 176.639 89.7979 180.36C72.2317 182.556 78.6631 180.7 72.2911 180.7C62.0406 180.7 60.4138 211.465 60.8566 221.723C61.9987 250.397 60.5299 244.813 61.7989 256.923Z" fill="#252525"/>
<path d="M219.1 230.136C215.687 246.129 214.792 250.324 207.943 256.594C210.389 183.258 206.607 203.047 203.48 183.353C199.815 180.666 198.449 181.776 192.803 178.571C181.574 170.279 182.118 166.958 177.031 161.159C172.5 166.517 165.987 171.234 160.956 173.413C162.231 171.324 163.318 168.982 164.037 167.476L163.435 166.972C159.211 170.026 150.676 174.367 145.431 174.833C148.249 171.37 147.919 171.806 149.045 169.696C144.839 172.283 140.369 174.039 134.73 174.533C140.042 171.909 142.424 170.113 146.544 166.68L146.167 165.981C117.559 174.671 110.773 176.639 89.7979 180.36C72.2317 182.556 78.6631 180.7 72.2911 180.7C62.0406 180.7 60.4138 211.465 60.8566 221.723C61.9987 250.398 60.5299 244.813 61.7989 256.924C57.7516 253.546 52.6878 244.856 50.4279 232.675C49.9473 230.179 49.6044 227.613 49.2399 224.895C47.713 213.493 44.4406 200.205 46.7046 186.592C48.8511 173.434 65.236 154.084 76.437 143.757C42.012 175.82 52.137 211.598 57.8745 240.282C56.1856 214.967 51.3 174.15 74.25 172.8C105.3 172.8 140.223 168.392 161.823 146.792C160.473 156.242 159.3 157.95 152.55 164.7C157.95 160.65 164.7 157.95 167.4 151.2C166.05 156.6 166.05 160.65 162 164.7C166.05 162 170.1 157.95 174.15 153.9C174.15 157.95 171.45 162 170.1 166.05C172.8 159.3 180.9 155.25 182.25 148.5C178.2 166.05 198.948 175.48 205.361 179.192C214.136 191.342 214.473 216.992 212.448 238.255C219.873 213.955 216.498 172.442 194.561 143.755C218.523 161.305 223.56 209.771 219.1 230.136ZM81.4981 161.98C97.9776 161.495 110.071 158.825 127.736 148.817C110.743 156.264 99.9904 159.817 81.4981 161.98ZM126.386 156.242C135.107 152.623 141.175 144.771 151.023 142.405C141.947 145.554 135.636 153.454 126.386 156.242ZM74.0731 161.305C80.3223 150.067 93.6751 140.755 110.523 139.367C96.8125 141.916 82.1299 149.786 74.0731 161.305Z" fill="#161414"/>
<path d="M116.936 135C134.6 127.448 150.68 128.219 167.561 137.68C149.845 130.113 136.303 131.562 136.303 131.562C133.079 131.814 127.925 131.69 116.936 135ZM186.461 145.78C192.048 147.932 194.38 151.201 197.778 155.92C202.752 163.957 204.144 167.439 207.043 175.48C204.228 163.932 197.914 148.894 186.461 145.78ZM154.736 145.442C145.13 153.546 138.166 157.912 118.961 164.342C134.137 160.738 143.81 156.487 154.736 145.442ZM185.786 153.88C188.576 163.378 193.718 168.672 201.648 173.455C194.277 167.91 189.458 162.764 185.786 153.88ZM79.1356 148.817C79.1356 148.817 78.4795 149.303 77.3981 150.102C65.0524 158.849 55.4012 175.563 55.1731 196.742C57.8663 175.671 66.2161 160.843 79.1356 148.817ZM85.5481 154.892C96.02 149.418 100.856 149.375 118.286 146.455C103.243 147.504 95.8013 148.221 85.5481 154.892ZM113.963 160.601C107.8 163.693 93.3389 167.156 93.3389 167C88.267 168.126 79.4744 170.08 79.4744 170.08C82.8791 169.649 88.7206 168.966 93.5387 167.932C93.5387 168.114 105.413 165.252 108.9 163.451C112.729 161.645 111.432 162.354 115.249 159.955C115.248 159.955 114.761 160.2 113.963 160.601Z" fill="#343434"/>
<path d="M198.814 145.361C193.105 140.921 184.878 138.961 177.591 139.232C171.366 129.169 151.737 126.275 139.832 126.151C121.871 125.964 93.4942 131.082 77.5831 141.379C62.7763 150.872 49.2021 168.765 46.3036 186.523C44.5702 196.946 46.0633 207.746 47.8291 218.086C48.6931 223.081 49.1386 228.116 50.0296 232.747C52.5906 246.553 58.5279 255.192 62.3011 257.816C60.8634 244.512 62.4321 251.069 61.2616 221.704C60.7176 209.107 63.0234 180.24 72.7231 181.123C79.3152 181.588 74.092 182.731 89.8681 180.757C110.587 177.082 117.362 175.152 146.285 166.367C141.753 170.145 139.396 171.859 133.325 174.764C133.311 174.751 133.311 174.764 133.311 174.764C133.122 174.859 132.92 174.953 132.731 175.034C137.751 175.002 143.998 173.272 147.984 170.822C147.435 171.851 145.781 173.721 144.557 175.277C149.746 175.277 159.056 170.636 163.673 167.299C163.025 168.649 161.509 171.972 159.878 174.332C161.418 173.563 165.108 172.56 172.473 166.327C173.972 165.071 175.686 163.37 177.036 161.777C181.557 166.932 181.286 170.574 192.602 178.922C198.215 182.108 199.732 181.116 203.105 183.58C206.083 203.085 210.036 182.506 207.506 257.533C215.066 250.837 215.977 246.698 219.494 230.222C224.501 207.363 217.686 159.52 198.814 145.361ZM217.281 229.939C214.29 246.525 214.038 249.325 207.993 255.886C209.092 241.306 210.059 228.266 209.774 213.577C209.174 191.894 206.291 195.962 204.239 182.905C200.353 180.176 198.47 180.67 194.897 179.057C194.276 178.828 193.763 178.436 193.182 178.139C181.853 170.277 181.845 166.524 177.212 161.575C178.523 160.071 179.659 158.347 180.033 157.606C177.996 160.662 169.264 168.728 160.985 173.306C162.414 171.044 163.501 168.844 164.279 166.853C166.621 165.217 168.221 163.67 169.571 162.331C164.955 166.165 153.067 173.077 145.608 174.575C145.843 174.334 148.14 172.11 149.005 170.425C150.834 169.694 155.776 166.674 157.515 164.751C149.005 170.425 139.324 173.823 135.944 174.385C140.08 172.834 145.448 167.998 148.202 165.799C150.862 163.674 151.378 162.821 154.14 160.021C152.326 161.287 149.496 164.061 145.965 165.552C143.876 166.433 86.7132 182.424 76.7718 179.827C74.7765 179.327 72.5206 178.722 70.5348 179.3C54.6048 186.153 60.4624 230.106 60.6798 243.601C60.8634 254.972 61.6788 256.952 61.6788 256.952C51.2149 247.016 50.7586 225.154 49.6638 217.559C48.276 207.494 47.0677 196.808 48.9213 186.82C51.9453 169.756 65.0025 152.52 78.9723 143.539C99.8554 129.985 162.124 118.519 177.576 139.718C215.938 139.718 221.319 202.866 217.281 229.939Z" fill="black"/>
</g>
<g clip-path="url(#clip1)">
<path d="M81.2002 166.605H68.4459L77.4647 157.586C82.3276 152.723 85.3643 146.399 86.1807 139.537C73.4912 131.21 64.2121 120.254 59.245 107.69C54.2815 95.1348 53.6577 81.3141 57.4414 67.7212C61.9813 51.4112 72.6294 36.5451 87.4236 25.8611C103.5 14.2515 123.514 8.11475 145.301 8.11475C172.747 8.11475 195.881 16.0002 212.201 30.918C226.903 44.3576 235 62.4858 235 81.9635C235 91.4265 233.073 100.634 229.273 109.331C225.341 118.33 219.583 126.343 212.159 133.146C195.817 148.123 172.697 156.039 145.3 156.039C135.13 156.039 124.517 154.681 115.042 152.19C106.073 161.39 93.9196 166.605 81.2002 166.605Z" fill="white"/>
<path d="M99.26 62.72V64.36L90.74 60.68V58.84L99.26 55.16V56.76L91.96 59.74L99.26 62.72ZM109.918 66.16C107.798 66.16 106.331 65.6933 105.518 64.76C104.718 63.8133 104.318 62.1267 104.318 59.7C104.318 57.4333 104.758 55.7933 105.638 54.78C106.518 53.7667 107.945 53.26 109.918 53.26C112.038 53.26 113.498 53.7333 114.298 54.68C115.098 55.6133 115.498 57.2867 115.498 59.7C115.498 61.3267 115.278 62.62 114.838 63.58C114.411 64.54 113.745 65.2267 112.838 65.64L115.118 68.56H113.098L111.218 66.08C111.031 66.1067 110.831 66.1267 110.618 66.14C110.418 66.1533 110.185 66.16 109.918 66.16ZM106.638 63.32C106.891 63.7733 107.265 64.0933 107.758 64.28C108.251 64.4667 108.971 64.56 109.918 64.56C111.398 64.56 112.411 64.2067 112.958 63.5C113.505 62.78 113.778 61.5133 113.778 59.7C113.778 58.7933 113.731 58.0533 113.638 57.48C113.545 56.8933 113.398 56.42 113.198 56.06C112.945 55.6067 112.571 55.2867 112.078 55.1C111.598 54.9 110.878 54.8 109.918 54.8C108.425 54.8 107.405 55.16 106.858 55.88C106.311 56.6 106.038 57.8733 106.038 59.7C106.038 60.6067 106.085 61.3533 106.178 61.94C106.271 62.5133 106.425 62.9733 106.638 63.32ZM120.926 66.16C119.833 66.16 119.013 65.8867 118.466 65.34C117.92 64.7933 117.646 63.9733 117.646 62.88V56.12H119.286V62.68C119.286 63.36 119.46 63.8533 119.806 64.16C120.153 64.4667 120.7 64.62 121.446 64.62C121.9 64.62 122.353 64.5667 122.806 64.46C123.273 64.34 123.74 64.16 124.206 63.92V56.12H125.846V66H124.346L124.266 65.18H124.226C123.533 65.54 122.933 65.7933 122.426 65.94C121.92 66.0867 121.42 66.16 120.926 66.16ZM130.728 66.16C129.715 66.16 128.968 65.92 128.488 65.44C128.021 64.9467 127.788 64.1733 127.788 63.12C127.788 62.0533 128.075 61.3 128.648 60.86C129.221 60.4067 130.195 60.18 131.568 60.18C132.021 60.18 132.468 60.2 132.908 60.24C133.348 60.28 133.761 60.34 134.148 60.42V59.46C134.148 58.7267 133.961 58.2 133.588 57.88C133.215 57.56 132.615 57.4 131.788 57.4C131.175 57.4 130.635 57.4267 130.168 57.48C129.701 57.52 129.235 57.5933 128.768 57.7V56.28C129.301 56.1467 129.841 56.0533 130.388 56C130.948 55.9467 131.581 55.92 132.288 55.92C133.475 55.92 134.355 56.2 134.928 56.76C135.501 57.3067 135.788 58.16 135.788 59.32V66H134.288L134.208 65.08H134.168C133.768 65.4 133.248 65.66 132.608 65.86C131.981 66.06 131.355 66.16 130.728 66.16ZM131.748 61.52C130.841 61.52 130.208 61.6333 129.848 61.86C129.501 62.0733 129.328 62.46 129.328 63.02C129.328 63.6067 129.475 64.0333 129.768 64.3C130.061 64.5533 130.541 64.68 131.208 64.68C131.728 64.68 132.261 64.6 132.808 64.44C133.355 64.28 133.801 64.08 134.148 63.84V61.72C133.708 61.6533 133.295 61.6067 132.908 61.58C132.535 61.54 132.148 61.52 131.748 61.52ZM139.991 66H138.351V56.12H139.771L139.851 57.08H139.911C140.445 56.68 140.998 56.3867 141.571 56.2C142.158 56.0133 142.811 55.92 143.531 55.92C144.625 55.92 145.451 56.1933 146.011 56.74C146.585 57.2867 146.871 58.0933 146.871 59.16V66H145.231V59.36C145.231 58.6933 145.045 58.2 144.671 57.88C144.298 57.56 143.725 57.4 142.951 57.4C142.471 57.4 141.978 57.48 141.471 57.64C140.978 57.7867 140.485 58.0067 139.991 58.3V66ZM155.965 52.7H157.605V66H156.185L156.065 65.08H156.025C155.639 65.44 155.165 65.7133 154.605 65.9C154.059 66.0733 153.425 66.16 152.705 66.16C151.359 66.16 150.392 65.76 149.805 64.96C149.232 64.16 148.945 62.8533 148.945 61.04C148.945 59.2267 149.299 57.92 150.005 57.12C150.712 56.32 151.892 55.92 153.545 55.92C154.012 55.92 154.445 55.96 154.845 56.04C155.259 56.1067 155.632 56.2067 155.965 56.34V52.7ZM153.745 57.4C152.505 57.4 151.665 57.66 151.225 58.18C150.799 58.7 150.585 59.6533 150.585 61.04C150.585 62.3867 150.772 63.3267 151.145 63.86C151.532 64.38 152.245 64.64 153.285 64.64C153.779 64.64 154.252 64.58 154.705 64.46C155.159 64.3267 155.579 64.1333 155.965 63.88V57.8C155.645 57.6667 155.305 57.5667 154.945 57.5C154.585 57.4333 154.185 57.4 153.745 57.4ZM165.544 54.4H163.784V52.7H165.544V54.4ZM162.344 69.24C162.09 69.24 161.864 69.2333 161.664 69.22C161.45 69.2067 161.197 69.1733 160.904 69.12V67.68C161.184 67.72 161.39 67.74 161.524 67.74C161.644 67.7533 161.757 67.76 161.864 67.76C162.584 67.76 163.09 67.6067 163.384 67.3C163.69 66.9933 163.844 66.4667 163.844 65.72V56.12H165.484V65.9C165.484 67.0067 165.217 67.84 164.684 68.4C164.164 68.96 163.384 69.24 162.344 69.24ZM175.537 64.08V65.46C175.19 65.6467 174.677 65.8133 173.997 65.96C173.33 66.0933 172.65 66.16 171.957 66.16C170.41 66.16 169.304 65.76 168.637 64.96C167.97 64.16 167.637 62.84 167.637 61C167.637 59.2267 167.984 57.94 168.677 57.14C169.37 56.3267 170.477 55.92 171.997 55.92C173.41 55.92 174.424 56.24 175.037 56.88C175.65 57.5067 175.957 58.56 175.957 60.04C175.957 60.3067 175.95 60.5533 175.937 60.78C175.924 61.0067 175.897 61.28 175.857 61.6H169.297C169.31 62.6933 169.53 63.4733 169.957 63.94C170.397 64.4067 171.15 64.64 172.217 64.64C172.79 64.64 173.39 64.5867 174.017 64.48C174.644 64.3733 175.15 64.24 175.537 64.08ZM174.457 59.82C174.444 58.94 174.25 58.32 173.877 57.96C173.504 57.5867 172.877 57.4 171.997 57.4C171.01 57.4 170.31 57.6133 169.897 58.04C169.497 58.4533 169.297 59.1867 169.297 60.24H174.437C174.437 60.2133 174.437 60.1533 174.437 60.06C174.45 59.9533 174.457 59.8733 174.457 59.82ZM184.896 57.4C184.042 57.4 183.449 57.5 183.116 57.7C182.796 57.9 182.636 58.3067 182.636 58.92C182.636 59.24 182.709 59.4867 182.856 59.66C183.016 59.82 183.262 59.9267 183.596 59.98L186.136 60.36C186.936 60.48 187.496 60.7333 187.816 61.12C188.136 61.4933 188.296 62.0867 188.296 62.9C188.296 64.0467 188.022 64.88 187.476 65.4C186.929 65.9067 186.022 66.16 184.756 66.16C183.996 66.16 183.289 66.12 182.636 66.04C181.982 65.96 181.442 65.8533 181.016 65.72V64.18C181.442 64.3133 181.962 64.4267 182.576 64.52C183.202 64.6 183.842 64.64 184.496 64.64C185.322 64.64 185.889 64.52 186.196 64.28C186.502 64.04 186.656 63.6133 186.656 63C186.656 62.6133 186.569 62.3333 186.396 62.16C186.222 61.9733 185.909 61.8467 185.456 61.78L182.916 61.4C182.276 61.3067 181.796 61.06 181.476 60.66C181.169 60.26 181.009 59.68 180.996 58.92C180.996 57.88 181.302 57.12 181.916 56.64C182.542 56.16 183.502 55.92 184.796 55.92C185.329 55.92 185.809 55.9333 186.236 55.96C186.676 55.9867 187.136 56.04 187.616 56.12V57.58C187.269 57.5267 186.862 57.4867 186.396 57.46C185.929 57.42 185.429 57.4 184.896 57.4ZM193.485 66.16C192.392 66.16 191.572 65.8867 191.025 65.34C190.478 64.7933 190.205 63.9733 190.205 62.88V56.12H191.845V62.68C191.845 63.36 192.018 63.8533 192.365 64.16C192.712 64.4667 193.258 64.62 194.005 64.62C194.458 64.62 194.912 64.5667 195.365 64.46C195.832 64.34 196.298 64.16 196.765 63.92V56.12H198.405V66H196.905L196.825 65.18H196.785C196.092 65.54 195.492 65.7933 194.985 65.94C194.478 66.0867 193.978 66.16 193.485 66.16ZM202.747 54.4H200.987V52.7H202.747V54.4ZM202.687 66H201.047V56.12H202.687V66ZM208.724 57.4C207.871 57.4 207.277 57.5 206.944 57.7C206.624 57.9 206.464 58.3067 206.464 58.92C206.464 59.24 206.537 59.4867 206.684 59.66C206.844 59.82 207.091 59.9267 207.424 59.98L209.964 60.36C210.764 60.48 211.324 60.7333 211.644 61.12C211.964 61.4933 212.124 62.0867 212.124 62.9C212.124 64.0467 211.851 64.88 211.304 65.4C210.757 65.9067 209.851 66.16 208.584 66.16C207.824 66.16 207.117 66.12 206.464 66.04C205.811 65.96 205.271 65.8533 204.844 65.72V64.18C205.271 64.3133 205.791 64.4267 206.404 64.52C207.031 64.6 207.671 64.64 208.324 64.64C209.151 64.64 209.717 64.52 210.024 64.28C210.331 64.04 210.484 63.6133 210.484 63C210.484 62.6133 210.397 62.3333 210.224 62.16C210.051 61.9733 209.737 61.8467 209.284 61.78L206.744 61.4C206.104 61.3067 205.624 61.06 205.304 60.66C204.997 60.26 204.837 59.68 204.824 58.92C204.824 57.88 205.131 57.12 205.744 56.64C206.371 56.16 207.331 55.92 208.624 55.92C209.157 55.92 209.637 55.9333 210.064 55.96C210.504 55.9867 210.964 56.04 211.444 56.12V57.58C211.097 57.5267 210.691 57.4867 210.224 57.46C209.757 57.42 209.257 57.4 208.724 57.4ZM98.22 88.04V89.42C97.8867 89.6333 97.3867 89.8133 96.72 89.96C96.0667 90.0933 95.38 90.16 94.66 90.16C93.26 90.16 92.2733 89.78 91.7 89.02C91.14 88.26 90.86 86.9333 90.86 85.04C90.86 83.1867 91.2267 81.8733 91.96 81.1C92.6933 80.3133 93.94 79.92 95.7 79.92C96.0867 79.92 96.4333 79.9333 96.74 79.96C97.06 79.9733 97.4667 80.0133 97.96 80.08V81.54C97.4667 81.4733 97.06 81.4333 96.74 81.42C96.4333 81.4067 96.0867 81.4 95.7 81.4C94.4467 81.4 93.6 81.66 93.16 82.18C92.72 82.6867 92.5 83.64 92.5 85.04C92.5 86.44 92.6733 87.3933 93.02 87.9C93.3667 88.3933 94.0333 88.64 95.02 88.64C95.5667 88.64 96.1333 88.5867 96.72 88.48C97.3067 88.36 97.8067 88.2133 98.22 88.04ZM108.711 85.04C108.711 86.9067 108.364 88.2267 107.671 89C106.991 89.7733 105.818 90.16 104.151 90.16C102.431 90.16 101.238 89.7867 100.571 89.04C99.9043 88.2933 99.5709 86.96 99.5709 85.04C99.5709 83.16 99.9109 81.84 100.591 81.08C101.284 80.3067 102.471 79.92 104.151 79.92C105.871 79.92 107.058 80.2933 107.711 81.04C108.378 81.7867 108.711 83.12 108.711 85.04ZM101.211 85.02C101.211 86.4867 101.404 87.46 101.791 87.94C102.178 88.4067 102.964 88.64 104.151 88.64C105.298 88.64 106.071 88.3933 106.471 87.9C106.871 87.3933 107.071 86.4333 107.071 85.02C107.071 83.5533 106.878 82.5867 106.491 82.12C106.118 81.64 105.338 81.4 104.151 81.4C102.991 81.4 102.211 81.6467 101.811 82.14C101.411 82.6333 101.211 83.5933 101.211 85.02ZM112.53 90H110.89V80.12H112.31L112.39 81.08H112.45C112.984 80.68 113.537 80.3867 114.11 80.2C114.697 80.0133 115.35 79.92 116.07 79.92C117.164 79.92 117.99 80.1933 118.55 80.74C119.124 81.2867 119.41 82.0933 119.41 83.16V90H117.77V83.36C117.77 82.6933 117.584 82.2 117.21 81.88C116.837 81.56 116.264 81.4 115.49 81.4C115.01 81.4 114.517 81.48 114.01 81.64C113.517 81.7867 113.024 82.0067 112.53 82.3V90ZM127.647 88.46V89.84C127.434 89.9333 127.141 90.0067 126.767 90.06C126.407 90.1267 126.061 90.16 125.727 90.16C124.527 90.16 123.667 89.8933 123.147 89.36C122.641 88.8267 122.387 87.9067 122.387 86.6V81.52H120.907V80.12H122.407L122.667 77.72H124.027V80.12H127.547V81.52H124.027V86.54C124.027 87.3533 124.174 87.9067 124.467 88.2C124.774 88.4933 125.307 88.64 126.067 88.64C126.307 88.64 126.581 88.62 126.887 88.58C127.207 88.54 127.461 88.5 127.647 88.46ZM136.572 88.08V89.46C136.225 89.6467 135.712 89.8133 135.032 89.96C134.365 90.0933 133.685 90.16 132.992 90.16C131.445 90.16 130.339 89.76 129.672 88.96C129.005 88.16 128.672 86.84 128.672 85C128.672 83.2267 129.019 81.94 129.712 81.14C130.405 80.3267 131.512 79.92 133.032 79.92C134.445 79.92 135.459 80.24 136.072 80.88C136.685 81.5067 136.992 82.56 136.992 84.04C136.992 84.3067 136.985 84.5533 136.972 84.78C136.959 85.0067 136.932 85.28 136.892 85.6H130.332C130.345 86.6933 130.565 87.4733 130.992 87.94C131.432 88.4067 132.185 88.64 133.252 88.64C133.825 88.64 134.425 88.5867 135.052 88.48C135.679 88.3733 136.185 88.24 136.572 88.08ZM135.492 83.82C135.479 82.94 135.285 82.32 134.912 81.96C134.539 81.5867 133.912 81.4 133.032 81.4C132.045 81.4 131.345 81.6133 130.932 82.04C130.532 82.4533 130.332 83.1867 130.332 84.24H135.472C135.472 84.2133 135.472 84.1533 135.472 84.06C135.485 83.9533 135.492 83.8733 135.492 83.82ZM140.753 90H139.113V80.12H140.533L140.613 81.08H140.673C141.206 80.68 141.76 80.3867 142.333 80.2C142.92 80.0133 143.573 79.92 144.293 79.92C145.386 79.92 146.213 80.1933 146.773 80.74C147.346 81.2867 147.633 82.0933 147.633 83.16V90H145.993V83.36C145.993 82.6933 145.806 82.2 145.433 81.88C145.06 81.56 144.486 81.4 143.713 81.4C143.233 81.4 142.74 81.48 142.233 81.64C141.74 81.7867 141.246 82.0067 140.753 82.3V90ZM155.87 88.46V89.84C155.657 89.9333 155.363 90.0067 154.99 90.06C154.63 90.1267 154.283 90.16 153.95 90.16C152.75 90.16 151.89 89.8933 151.37 89.36C150.863 88.8267 150.61 87.9067 150.61 86.6V81.52H149.13V80.12H150.63L150.89 77.72H152.25V80.12H155.77V81.52H152.25V86.54C152.25 87.3533 152.397 87.9067 152.69 88.2C152.997 88.4933 153.53 88.64 154.29 88.64C154.53 88.64 154.803 88.62 155.11 88.58C155.43 88.54 155.683 88.5 155.87 88.46ZM162.79 78.4H161.03V76.7H162.79V78.4ZM159.59 93.24C159.337 93.24 159.11 93.2333 158.91 93.22C158.697 93.2067 158.443 93.1733 158.15 93.12V91.68C158.43 91.72 158.637 91.74 158.77 91.74C158.89 91.7533 159.003 91.76 159.11 91.76C159.83 91.76 160.337 91.6067 160.63 91.3C160.937 90.9933 161.09 90.4667 161.09 89.72V80.12H162.73V89.9C162.73 91.0067 162.463 91.84 161.93 92.4C161.41 92.96 160.63 93.24 159.59 93.24ZM172.783 88.08V89.46C172.436 89.6467 171.923 89.8133 171.243 89.96C170.576 90.0933 169.896 90.16 169.203 90.16C167.656 90.16 166.55 89.76 165.883 88.96C165.216 88.16 164.883 86.84 164.883 85C164.883 83.2267 165.23 81.94 165.923 81.14C166.616 80.3267 167.723 79.92 169.243 79.92C170.656 79.92 171.67 80.24 172.283 80.88C172.896 81.5067 173.203 82.56 173.203 84.04C173.203 84.3067 173.196 84.5533 173.183 84.78C173.17 85.0067 173.143 85.28 173.103 85.6H166.543C166.556 86.6933 166.776 87.4733 167.203 87.94C167.643 88.4067 168.396 88.64 169.463 88.64C170.036 88.64 170.636 88.5867 171.263 88.48C171.89 88.3733 172.396 88.24 172.783 88.08ZM171.703 83.82C171.69 82.94 171.496 82.32 171.123 81.96C170.75 81.5867 170.123 81.4 169.243 81.4C168.256 81.4 167.556 81.6133 167.143 82.04C166.743 82.4533 166.543 83.1867 166.543 84.24H171.683C171.683 84.2133 171.683 84.1533 171.683 84.06C171.696 83.9533 171.703 83.8733 171.703 83.82ZM98.22 112.04V113.42C97.8867 113.633 97.3867 113.813 96.72 113.96C96.0667 114.093 95.38 114.16 94.66 114.16C93.26 114.16 92.2733 113.78 91.7 113.02C91.14 112.26 90.86 110.933 90.86 109.04C90.86 107.187 91.2267 105.873 91.96 105.1C92.6933 104.313 93.94 103.92 95.7 103.92C96.0867 103.92 96.4333 103.933 96.74 103.96C97.06 103.973 97.4667 104.013 97.96 104.08V105.54C97.4667 105.473 97.06 105.433 96.74 105.42C96.4333 105.407 96.0867 105.4 95.7 105.4C94.4467 105.4 93.6 105.66 93.16 106.18C92.72 106.687 92.5 107.64 92.5 109.04C92.5 110.44 92.6733 111.393 93.02 111.9C93.3667 112.393 94.0333 112.64 95.02 112.64C95.5667 112.64 96.1333 112.587 96.72 112.48C97.3067 112.36 97.8067 112.213 98.22 112.04ZM108.711 109.04C108.711 110.907 108.364 112.227 107.671 113C106.991 113.773 105.818 114.16 104.151 114.16C102.431 114.16 101.238 113.787 100.571 113.04C99.9043 112.293 99.5709 110.96 99.5709 109.04C99.5709 107.16 99.9109 105.84 100.591 105.08C101.284 104.307 102.471 103.92 104.151 103.92C105.871 103.92 107.058 104.293 107.711 105.04C108.378 105.787 108.711 107.12 108.711 109.04ZM101.211 109.02C101.211 110.487 101.404 111.46 101.791 111.94C102.178 112.407 102.964 112.64 104.151 112.64C105.298 112.64 106.071 112.393 106.471 111.9C106.871 111.393 107.071 110.433 107.071 109.02C107.071 107.553 106.878 106.587 106.491 106.12C106.118 105.64 105.338 105.4 104.151 105.4C102.991 105.4 102.211 105.647 101.811 106.14C101.411 106.633 101.211 107.593 101.211 109.02ZM112.53 114H110.89V104.12H112.39L112.47 104.88H112.53C113.117 104.547 113.65 104.307 114.13 104.16C114.61 104 115.09 103.92 115.57 103.92C116.13 103.92 116.61 104.007 117.01 104.18C117.41 104.353 117.724 104.613 117.95 104.96H118.01C118.544 104.627 119.104 104.373 119.69 104.2C120.29 104.013 120.89 103.92 121.49 103.92C122.437 103.92 123.15 104.173 123.63 104.68C124.124 105.173 124.37 105.907 124.37 106.88V114H122.73V107.08C122.73 106.507 122.577 106.087 122.27 105.82C121.964 105.54 121.477 105.4 120.81 105.4C120.437 105.4 120.044 105.46 119.63 105.58C119.217 105.687 118.804 105.847 118.39 106.06C118.417 106.193 118.43 106.327 118.43 106.46C118.444 106.593 118.45 106.733 118.45 106.88V114H116.81V107.08C116.81 106.507 116.657 106.087 116.35 105.82C116.044 105.54 115.557 105.4 114.89 105.4C114.557 105.4 114.204 105.46 113.83 105.58C113.457 105.687 113.024 105.873 112.53 106.14V114ZM128.565 114H126.925V104.12H128.425L128.505 104.88H128.565C129.152 104.547 129.685 104.307 130.165 104.16C130.645 104 131.125 103.92 131.605 103.92C132.165 103.92 132.645 104.007 133.045 104.18C133.445 104.353 133.759 104.613 133.985 104.96H134.045C134.579 104.627 135.139 104.373 135.725 104.2C136.325 104.013 136.925 103.92 137.525 103.92C138.472 103.92 139.185 104.173 139.665 104.68C140.159 105.173 140.405 105.907 140.405 106.88V114H138.765V107.08C138.765 106.507 138.612 106.087 138.305 105.82C137.999 105.54 137.512 105.4 136.845 105.4C136.472 105.4 136.079 105.46 135.665 105.58C135.252 105.687 134.839 105.847 134.425 106.06C134.452 106.193 134.465 106.327 134.465 106.46C134.479 106.593 134.485 106.733 134.485 106.88V114H132.845V107.08C132.845 106.507 132.692 106.087 132.385 105.82C132.079 105.54 131.592 105.4 130.925 105.4C130.592 105.4 130.239 105.46 129.865 105.58C129.492 105.687 129.059 105.873 128.565 106.14V114ZM144.661 102.4H142.901V100.7H144.661V102.4ZM144.601 114H142.961V104.12H144.601V114ZM153.038 112.46V113.84C152.825 113.933 152.531 114.007 152.158 114.06C151.798 114.127 151.451 114.16 151.118 114.16C149.918 114.16 149.058 113.893 148.538 113.36C148.031 112.827 147.778 111.907 147.778 110.6V105.52H146.298V104.12H147.798L148.058 101.72H149.418V104.12H152.938V105.52H149.418V110.54C149.418 111.353 149.565 111.907 149.858 112.2C150.165 112.493 150.698 112.64 151.458 112.64C151.698 112.64 151.971 112.62 152.278 112.58C152.598 112.54 152.851 112.5 153.038 112.46ZM166.018 108.68L157.498 112.36V110.72L164.798 107.74L157.498 104.76V103.16L166.018 106.84V108.68Z" fill="black"/>
</g>
<defs>
<linearGradient id="paint0_linear" x1="135" y1="367.2" x2="135" y2="308.475" gradientUnits="userSpaceOnUse">
<stop stop-color="#E1AC8F" stop-opacity="0.8"/>
<stop offset="0.7" stop-color="#C27B55"/>
</linearGradient>
<linearGradient id="paint1_linear" x1="135" y1="326.7" x2="135" y2="322.65" gradientUnits="userSpaceOnUse">
<stop offset="0.1" stop-color="#E8B9A0"/>
<stop offset="1" stop-color="#E1AC8F"/>
</linearGradient>
<radialGradient id="paint2_radial" cx="0" cy="0" r="1" gradientUnits="userSpaceOnUse" gradientTransform="translate(98.8794 249.029) rotate(174.019) scale(20.4068)">
<stop stop-color="white"/>
<stop offset="0.315" stop-color="#FCFDFD"/>
<stop offset="0.504" stop-color="#F4F7F8"/>
<stop offset="0.66" stop-color="#E5ECEF"/>
<stop offset="0.76" stop-color="#D8E2E7"/>
</radialGradient>
<radialGradient id="paint3_radial" cx="0" cy="0" r="1" gradientUnits="userSpaceOnUse" gradientTransform="translate(105.316 246.37) rotate(1.19182) scale(21.6044 17.2826)">
<stop stop-color="#E1AC8F"/>
<stop offset="0.7" stop-color="#E1AC8F" stop-opacity="0.3"/>
<stop offset="1" stop-color="#F0C7B1" stop-opacity="0"/>
</radialGradient>
<radialGradient id="paint4_radial" cx="0" cy="0" r="1" gradientUnits="userSpaceOnUse" gradientTransform="translate(93.9162 284.673) scale(41.1966)">
<stop offset="0.95" stop-opacity="0"/>
<stop offset="1" stop-opacity="0.2"/>
</radialGradient>
<radialGradient id="paint5_radial" cx="0" cy="0" r="1" gradientUnits="userSpaceOnUse" gradientTransform="translate(170.583 249.028) rotate(5.98141) scale(20.4055)">
<stop stop-color="white"/>
<stop offset="0.316" stop-color="#FCFDFD"/>
<stop offset="0.505" stop-color="#F4F7F8"/>
<stop offset="0.661" stop-color="#E5ECEF"/>
<stop offset="0.76" stop-color="#D8E2E7"/>
</radialGradient>
<radialGradient id="paint6_radial" cx="0" cy="0" r="1" gradientUnits="userSpaceOnUse" gradientTransform="translate(164.145 246.37) rotate(178.808) scale(21.6044 17.2826)">
<stop stop-color="#E1AC8F"/>
<stop offset="0.7" stop-color="#E1AC8F" stop-opacity="0.3"/>
<stop offset="1" stop-color="#F0C7B1" stop-opacity="0"/>
</radialGradient>
<radialGradient id="paint7_radial" cx="0" cy="0" r="1" gradientUnits="userSpaceOnUse" gradientTransform="translate(175.547 284.673) rotate(180) scale(41.1966)">
<stop offset="0.95" stop-opacity="0"/>
<stop offset="1" stop-opacity="0.2"/>
</radialGradient>
<radialGradient id="paint8_radial" cx="0" cy="0" r="1" gradientUnits="userSpaceOnUse" gradientTransform="translate(135 288.9) scale(55.35)">
<stop stop-color="#FFE4D6" stop-opacity="0.5"/>
<stop offset="0.9" stop-color="#F0C7B1" stop-opacity="0"/>
</radialGradient>
<radialGradient id="paint9_radial" cx="0" cy="0" r="1" gradientUnits="userSpaceOnUse" gradientTransform="translate(135 207.9) scale(49.95)">
<stop stop-color="#FFE4D6" stop-opacity="0.5"/>
<stop offset="0.9" stop-color="#F0C7B1" stop-opacity="0"/>
</radialGradient>
<clipPath id="clip0">
<rect width="270" height="270" fill="white" transform="translate(0 135)"/>
</clipPath>
<clipPath id="clip1">
<rect width="180" height="180" fill="white" transform="translate(55)"/>
</clipPath>
</defs>
</svg>
