<svg width="424" height="424" viewBox="0 0 424 424" fill="none" xmlns="http://www.w3.org/2000/svg">
<path d="M167.289 297.133C165.688 297.133 164.074 296.582 162.758 295.461L117.461 256.891C115.898 255.559 115 253.613 115 251.559C115 249.508 115.902 247.563 117.461 246.231L162.758 207.66C165.699 205.152 170.117 205.508 172.625 208.449C175.129 211.395 174.777 215.813 171.832 218.316L132.797 251.559L171.832 284.801C174.777 287.309 175.129 291.727 172.625 294.668C171.238 296.297 169.27 297.133 167.289 297.133Z" fill="white"/>
<path d="M256.711 297.133C254.731 297.133 252.762 296.297 251.379 294.668C248.871 291.727 249.227 287.309 252.168 284.801L291.203 251.559L252.168 218.316C249.227 215.813 248.871 211.395 251.379 208.449C253.883 205.508 258.305 205.152 261.242 207.66L306.539 246.231C308.102 247.563 309 249.508 309 251.559C309 253.613 308.102 255.559 306.539 256.891L261.242 295.461C259.926 296.582 258.313 297.133 256.711 297.133V297.133Z" fill="white"/>
<path d="M195.965 326.062C195.484 326.062 195 326.012 194.512 325.91C190.73 325.113 188.309 321.398 189.105 317.617L217.336 183.582C218.133 179.801 221.844 177.379 225.629 178.176C229.41 178.973 231.832 182.684 231.035 186.469L202.805 320.504C202.109 323.801 199.203 326.062 195.965 326.062V326.062Z" fill="white"/>
<path d="M377 399.086H47C21.0859 399.086 0 378.004 0 352.086V72C0 46.0859 21.0859 25 47 25H377C402.914 25 424 46.0859 424 72V352.086C424 378.004 402.914 399.086 377 399.086ZM47 39C28.8047 39 14 53.8047 14 72V352.086C14 370.281 28.8047 385.086 47 385.086H377C395.195 385.086 410 370.281 410 352.086V72C410 53.8047 395.195 39 377 39H47Z" fill="white"/>
<path d="M417 137.09H7C3.13281 137.09 0 133.957 0 130.09C0 126.227 3.13281 123.09 7 123.09H417C420.867 123.09 424 126.227 424 130.09C424 133.957 420.867 137.09 417 137.09Z" fill="white"/>
<path d="M119.602 103.594C107.391 103.594 97.4492 93.6523 97.4492 81.4414C97.4492 69.2266 107.391 59.2891 119.602 59.2891C131.816 59.2891 141.754 69.2266 141.754 81.4414C141.754 93.6523 131.816 103.594 119.602 103.594ZM119.602 73.2891C115.109 73.2891 111.449 76.9453 111.449 81.4414C111.449 85.9375 115.109 89.5938 119.602 89.5938C124.098 89.5938 127.754 85.9375 127.754 81.4414C127.754 76.9453 124.098 73.2891 119.602 73.2891Z" fill="white"/>
<path d="M51.5391 103.379C39.3242 103.379 29.3867 93.4414 29.3867 81.2266C29.3867 69.0117 39.3242 59.0742 51.5391 59.0742C63.7539 59.0742 73.6914 69.0117 73.6914 81.2266C73.6914 93.4414 63.7539 103.379 51.5391 103.379ZM51.5391 73.0742C47.0469 73.0742 43.3867 76.7344 43.3867 81.2266C43.3867 85.7227 47.0469 89.3789 51.5391 89.3789C56.0352 89.3789 59.6914 85.7227 59.6914 81.2266C59.6914 76.7344 56.0352 73.0742 51.5391 73.0742Z" fill="white"/>
<path d="M187.664 103.805C175.453 103.805 165.516 93.8672 165.516 81.6523C165.516 69.4414 175.453 59.5039 187.664 59.5039C199.879 59.5039 209.816 69.4414 209.816 81.6523C209.816 93.8672 199.879 103.805 187.664 103.805ZM187.664 73.5C183.172 73.5 179.516 77.1562 179.516 81.6523C179.516 86.1484 183.172 89.8047 187.664 89.8047C192.16 89.8047 195.816 86.1484 195.816 81.6523C195.816 77.1562 192.16 73.5 187.664 73.5Z" fill="white"/>
</svg>
