<svg width="512" height="512" viewBox="0 0 512 512" fill="none" xmlns="http://www.w3.org/2000/svg">
<path d="M402 166C396.48 166 392 170.48 392 176C392 181.52 396.48 186 402 186C407.52 186 412 181.52 412 176C412 170.48 407.52 166 402 166Z" fill="white"/>
<path d="M482 126H372.18L340.474 62.587C335.357 52.356 325.075 46 313.64 46H198.36C186.923 46 176.641 52.356 171.526 62.588L139.82 126H120V116C120 99.458 106.542 86 90 86H70C53.458 86 40 99.458 40 116V126H30C13.458 126 0 139.458 0 156C0 183.175 0 425.429 0 436C0 452.542 13.458 466 30 466H482C498.542 466 512 452.542 512 436C512 408.825 512 166.571 512 156C512 139.458 498.542 126 482 126ZM189.415 71.532C191.121 68.12 194.548 66 198.36 66H313.64C317.452 66 320.88 68.12 322.586 71.532L349.82 126H162.18L189.415 71.532ZM60 116C60 110.486 64.486 106 70 106H90C95.514 106 100 110.486 100 116V126H60V116ZM20 225.9H146.451C133.161 246.661 126 270.992 126 296C126 321.01 133.162 345.243 146.45 366H20V225.9ZM256 186C316.133 186 366 234.719 366 296C366 357.212 316.203 406 256 406C195.743 406 146 357.158 146 296C146 234.795 195.79 186 256 186ZM492 436C492 441.514 487.514 446 482 446H30C24.486 446 20 441.514 20 436V386H162.226C186.661 411.472 220.575 426 256 426C291.431 426 325.348 411.468 349.775 386H492V436ZM492 366H365.549C378.839 345.239 386 321.009 386 296C386 270.991 378.839 246.761 365.549 226H492V366ZM492 206H349.774C325.34 180.528 291.426 166 256 166C220.57 166 186.653 180.532 162.225 206H20V156C20 150.486 24.486 146 30 146C39.081 146 467.942 146 482 146C487.514 146 492 150.486 492 156V206Z" fill="white"/>
<path d="M286 86H226C220.477 86 216 90.477 216 96C216 101.523 220.477 106 226 106H286C291.522 106 296 101.523 296 96C296 90.477 291.522 86 286 86Z" fill="white"/>
<path d="M256 206C206.374 206 166 246.374 166 296C166 345.626 206.374 386 256 386C305.626 386 346 345.626 346 296C346 246.374 305.626 206 256 206ZM256 366C217.402 366 186 334.598 186 296C186 257.402 217.402 226 256 226C294.598 226 326 257.402 326 296C326 334.598 294.598 366 256 366Z" fill="white"/>
<path d="M256 246C228.43 246 206 268.43 206 296C206 301.523 210.477 306 216 306C221.523 306 226 301.523 226 296C226 279.458 239.458 266 256 266C261.522 266 266 261.523 266 256C266 250.477 261.522 246 256 246Z" fill="white"/>
<path d="M462 166H442C436.478 166 432 170.477 432 176C432 181.523 436.478 186 442 186H462C467.522 186 472 181.523 472 176C472 170.477 467.522 166 462 166Z" fill="white"/>
</svg>
