<svg width="91" height="91" viewBox="0 0 91 91" fill="none" xmlns="http://www.w3.org/2000/svg">
<path d="M80.3359 0H10.6641C4.7839 0 0 4.7839 0 10.6641V80.3359C0 86.2161 4.7839 91 10.6641 91H80.3359C86.2161 91 91 86.2161 91 80.3359V10.6641C91 4.7839 86.2161 0 80.3359 0ZM83.8906 80.3359C83.8906 82.296 82.296 83.8906 80.3359 83.8906H60.0742V54.9199H71.0564L72.8711 43.9004H60.0742V36.2578C60.0742 33.2408 62.3892 30.9258 65.4062 30.9258H72.6934V19.9062H65.4062C56.3555 19.9062 49.0586 27.2378 49.0586 36.2887V43.9004H38.3906V54.9199H49.0586V83.8906H10.6641C8.70401 83.8906 7.10938 82.296 7.10938 80.3359V10.6641C7.10938 8.70401 8.70401 7.10938 10.6641 7.10938H80.3359C82.296 7.10938 83.8906 8.70401 83.8906 10.6641V80.3359Z" fill="white"/>
</svg>
