<svg width="483" height="643" viewBox="0 0 483 643" fill="none" xmlns="http://www.w3.org/2000/svg">
<path d="M232.016 553.74C245.609 518.373 257.969 482.415 271.562 447.049C274.141 440.394 265.825 433.68 260.4 438.67C249.286 447.308 239.03 456.053 227.916 464.69C230.122 450.574 238.286 441.13 248.756 430.668C252.837 425.946 256.651 419.881 253.97 413.441C250.002 403.348 234.652 400.551 225.42 397.649C201.913 390.339 177.599 385.983 154.898 375.722C128.977 363.312 143.099 351.563 162.425 343.519C182.718 334.724 205.64 329.312 227.38 326.368C265.492 321.553 306.448 318.403 340.271 299.092C359.062 288.364 377.914 259.762 360.423 239.25C339.178 213.908 296.564 198.968 264.091 197.077C246.916 194.923 131.619 196.166 169.046 158.554C196.485 131.029 253.222 127.24 289.992 122.692C294.877 121.996 294.504 114.535 289.727 114.372C251.887 113.552 210.768 121.48 176.034 137.623C157.458 146.633 132.112 174.857 156.42 193.17C184.699 214.598 229.037 208.818 262.853 210.442C284.162 210.933 306.97 220.335 325.968 228.824C366.433 246.982 353.162 279.773 319.126 293.823C277.306 310.822 230.126 307.957 186.858 319.106C171.505 323.286 119.328 335.933 124.309 362.29C130.094 392.673 180.171 400.26 204.269 406.336C203.034 405.745 243.717 415.208 240.494 420.038C237.271 424.868 231.957 428.998 227.876 433.721C220.196 442.788 215.952 452.288 215.036 463.076C208.384 453.519 200.765 444.714 192.18 436.659C187.458 432.578 179.834 437.727 180.422 443.471C186.365 483.032 206.534 516.964 219.294 554.327C220.74 560.178 229.919 560.02 232.016 553.74ZM216.101 482.399C218.354 485.299 221.522 484.387 223.079 482.402C225.172 483.101 227.373 482.94 229.306 481.438C235.588 476.556 242.353 471.299 248.635 466.417C240.682 488.099 233.212 509.406 225.26 531.088C216.305 508.594 205.524 486.744 199.255 463.714C204.619 469.62 210.36 476.01 216.101 482.399Z" fill="#61FFFF"/>
</svg>
