<svg width="512" height="512" viewBox="0 0 512 512" fill="none" xmlns="http://www.w3.org/2000/svg">
<g clip-path="url(#clip0)">
<path d="M441.754 375.467C444.464 361.08 444.394 346.307 441.549 331.947L480.631 237.628C480.635 237.565 480.635 237.503 480.631 237.44C486.965 220.101 496.246 203.986 508.066 189.807C511.007 186.701 512.19 182.324 511.215 178.159L495.189 108.954C494.999 108.23 494.712 107.536 494.336 106.889C494.268 106.761 494.242 106.607 494.174 106.488C494.106 106.368 493.807 106.078 493.636 105.856C493.287 105.345 492.884 104.873 492.433 104.448C492.136 104.239 491.825 104.051 491.503 103.885C491.087 103.579 490.644 103.31 490.18 103.083C489.537 102.84 488.866 102.676 488.183 102.596C487.987 102.596 487.817 102.468 487.62 102.451C485.985 102.342 484.352 102.707 482.918 103.501C482.79 103.569 482.637 103.595 482.509 103.672H482.423L422.17 141.278C418.521 143.537 416.256 147.483 416.145 151.774C414.471 170.199 409.618 188.194 401.8 204.962V205.056L382.268 252.271C372.681 247.175 362.418 243.468 351.787 241.263C355.811 213.486 357.29 185.4 356.207 157.355C372.092 138.296 379.715 113.687 377.387 88.9856C372.053 39.2534 327.108 3.33658 325.188 1.82618C322.302 -0.446316 318.286 -0.617221 315.218 1.4019C312.15 3.42102 310.718 7.17707 311.663 10.7264C316.058 27.2299 312.252 44.6464 279.791 80.4608C265.206 94.5433 260.584 116.046 268.092 134.878C270.962 142.081 275.075 148.724 280.243 154.505C278.178 167.689 276.557 180.173 275.439 192.333C273.514 212.445 273.018 232.669 273.954 252.851C266.341 256.979 259.214 261.945 252.706 267.657L211.319 90.6752C211.319 90.496 211.149 90.368 211.098 90.2059C210.959 89.6369 210.758 89.0847 210.5 88.559L168.226 10.4875C163.995 2.67331 155.058 -1.34218 146.406 0.684164C137.754 2.71051 131.529 10.2772 131.208 19.1574L128 107.861C128.002 108.502 128.074 109.14 128.213 109.764C128.213 109.901 128.213 110.02 128.213 110.148L170.436 290.347C163.776 290.641 157.164 291.627 150.707 293.291L104.26 181.12C100.536 172.545 90.6576 168.499 81.9882 171.998L10.9994 201.387C2.31135 205.013 -1.81748 214.975 1.75781 223.684L64.7509 375.646C27.8315 377.584 -0.826314 408.577 0.126605 445.535C1.07952 482.493 31.2964 511.967 68.2666 512H443.733C468.123 511.646 490.471 498.308 502.359 477.009C514.247 455.711 513.87 429.688 501.369 408.743C488.868 387.798 466.143 375.113 441.754 375.467ZM433.058 154.59L468.83 132.267L456.166 162.85C454.361 167.205 456.428 172.198 460.783 174.003C465.138 175.808 470.131 173.741 471.936 169.387L484.599 138.803L494.08 179.874C483.937 192.249 475.604 206.003 469.333 220.723C460.437 224.847 450.22 225.061 441.159 221.313C432.097 217.566 425.016 210.198 421.632 200.994C427.625 186.147 431.473 170.522 433.058 154.59ZM413.431 221.585C419.077 228.487 426.403 233.821 434.705 237.073C441.304 239.912 448.403 241.408 455.586 241.476C457.314 241.47 459.041 241.365 460.757 241.161L433.527 306.867C425.374 288.89 412.761 273.295 396.885 261.564L413.431 221.585ZM296.525 160.64L339.396 163.26C339.661 171.23 339.567 179.473 339.302 187.844C325.02 188.865 310.668 188.171 296.55 185.779C295.475 185.626 294.426 185.506 293.359 185.361C294.212 177.323 295.253 169.182 296.508 160.64H296.525ZM292.454 91.9211C315.11 66.927 326.852 47.7014 329.583 29.6278C345.868 46.3834 356.618 67.7338 360.38 90.7947C362.172 110.87 355.965 130.841 343.108 146.364C326.252 145.34 309.581 144.316 293.094 143.292C286.01 136.669 281.935 127.443 281.811 117.747C281.687 108.05 285.525 98.7226 292.437 91.9211H292.454ZM291.806 202.368L294.28 202.692C305.276 204.393 316.376 205.337 327.501 205.517C331.034 205.517 334.754 205.235 338.483 204.945C337.707 215.928 336.435 227.396 334.822 239.249C332.715 239.138 330.65 238.933 328.533 238.933C315.65 238.956 302.863 241.158 290.714 245.444C290.32 231.077 290.679 216.698 291.789 202.368H291.806ZM225.801 302.157L201.387 198.161C200.245 193.649 195.699 190.884 191.168 191.945C186.637 193.007 183.791 197.503 184.772 202.052L206.711 295.654C200.679 293.497 194.448 291.945 188.109 291.021L150.656 131.192C155.903 133.58 161.599 134.82 167.364 134.827C167.902 134.827 168.474 134.75 169.02 134.724L175.053 160.486C175.703 163.502 177.93 165.932 180.877 166.842C183.825 167.752 187.034 167 189.271 164.876C191.507 162.752 192.424 159.586 191.667 156.595L185.626 130.816C191.415 128.253 196.522 124.365 200.533 119.467L238.609 282.274C233.664 288.442 229.372 295.105 225.801 302.157ZM173.662 116.984C162.748 119.1 151.606 114.638 145.169 105.574L146.253 75.52C149.222 76.0746 152.235 76.3602 155.255 76.3734C158.173 76.3856 161.082 76.0621 163.925 75.4091C169.682 73.8973 175.067 71.2194 179.746 67.5414L194.116 94.063C192.404 105.067 184.399 114.044 173.662 117.001V116.984ZM150.289 17.2971C151.451 17.0279 152.651 17.5649 153.224 18.6112L171.52 52.4459C168.22 55.4317 164.279 57.6211 160 58.8459C155.627 59.6486 151.128 59.4355 146.85 58.223L148.241 19.7718C148.287 18.5794 149.126 17.5657 150.289 17.2971ZM88.5333 187.733L95.0527 203.486L63.4794 216.559C59.7364 218.131 57.6189 222.122 58.4163 226.103C59.2136 230.083 62.705 232.951 66.7647 232.96C67.8859 232.958 68.9959 232.737 70.033 232.312L101.606 219.23L108.134 235L92.3391 241.545C88.5746 243.102 86.4365 247.104 87.2339 251.1C88.0313 255.095 91.5418 257.969 95.6159 257.963C96.7342 257.959 97.8411 257.739 98.8757 257.314L114.671 250.769L121.199 266.539L89.5999 279.637C85.8354 281.195 83.6973 285.197 84.4947 289.192C85.2921 293.188 88.8026 296.062 92.8767 296.056C93.9951 296.052 95.1021 295.832 96.1365 295.407L127.71 282.334L134.613 299C106.807 311.692 86.4161 336.51 79.3599 366.251L17.5103 217.122L88.5333 187.733ZM443.733 494.933H68.2666C39.9896 494.933 17.0666 472.01 17.0666 443.733C17.0666 415.456 39.9896 392.533 68.2666 392.533C73.2111 392.517 78.1309 393.23 82.8672 394.65C85.4258 395.423 88.1988 394.952 90.3592 393.378C92.5196 391.804 93.8178 389.309 93.8666 386.637C94.4736 356.225 112.054 328.712 139.397 315.384C166.74 302.056 199.243 305.156 223.573 323.413C225.723 325.014 228.5 325.511 231.072 324.756C233.643 324.001 235.711 322.082 236.655 319.573C253.327 275.142 299.404 249.007 346.094 257.499C392.784 265.991 426.708 306.677 426.667 354.133C426.683 363.892 425.231 373.598 422.357 382.925C421.46 385.827 422.173 388.986 424.23 391.222C426.286 393.457 429.375 394.431 432.341 393.779C436.083 392.956 439.902 392.538 443.733 392.533C472.01 392.533 494.933 415.456 494.933 443.733C494.933 472.01 472.01 494.933 443.733 494.933Z" fill="white"/>
<path d="M330.112 133.973C332.791 133.983 335.318 132.735 336.939 130.603C347.592 116.184 351.709 97.9569 348.288 80.3585C347.56 77.3494 345.26 74.9705 342.277 74.1423C339.294 73.3141 336.096 74.1664 333.921 76.3696C331.746 78.5727 330.935 81.781 331.802 84.7531C333.845 97.2582 330.796 110.061 323.337 120.303C321.397 122.889 321.085 126.348 322.531 129.239C323.976 132.13 326.931 133.956 330.163 133.956L330.112 133.973Z" fill="white"/>
<path d="M318.891 392.533C312.545 392.553 306.287 394.012 300.587 396.8C285.236 375.795 256.573 369.641 233.953 382.495C211.333 395.349 201.95 423.123 212.139 447.061C213.479 450.208 216.569 452.25 219.989 452.25C221.139 452.252 222.277 452.02 223.334 451.567C225.416 450.68 227.061 449.002 227.906 446.902C228.751 444.803 228.727 442.453 227.84 440.371C225.982 436.041 225.024 431.379 225.024 426.667C225.024 407.815 240.306 392.533 259.157 392.533C272.397 392.467 284.455 400.14 290.005 412.16C290.19 412.438 290.389 412.706 290.603 412.962C290.737 413.255 290.888 413.54 291.055 413.815C291.208 414.003 291.43 414.089 291.601 414.268C292.001 414.683 292.445 415.055 292.924 415.377C293.35 415.705 293.807 415.991 294.289 416.23C294.785 416.438 295.299 416.598 295.825 416.708C296.35 416.846 296.887 416.929 297.429 416.956C298.538 416.947 299.638 416.763 300.689 416.41C300.916 416.368 301.141 416.314 301.363 416.247C301.64 416.068 301.905 415.872 302.157 415.659C302.464 415.522 302.763 415.368 303.053 415.198C307.535 411.573 313.126 409.597 318.891 409.6C328.868 409.616 337.927 415.428 342.101 424.491C344.057 428.779 349.119 430.671 353.408 428.715C357.697 426.759 359.588 421.697 357.632 417.408C350.683 402.263 335.554 392.548 318.891 392.533Z" fill="white"/>
<path d="M150.903 333.235C149.615 333.653 119.467 344.081 119.467 375.467C119.467 380.18 123.287 384 128 384C132.713 384 136.533 380.18 136.533 375.467C137.23 363.563 145.062 353.265 156.348 349.414C160.825 347.911 163.236 343.063 161.732 338.586C160.229 334.109 155.381 331.698 150.903 333.201V333.235Z" fill="white"/>
<path d="M270.993 324.011C271.671 324.183 272.367 324.269 273.067 324.267C276.977 324.263 280.385 321.601 281.335 317.807C285.263 301.872 299.369 290.538 315.776 290.133C320.489 290.122 324.3 286.292 324.288 281.579C324.276 276.866 320.446 273.055 315.733 273.067C291.479 273.389 270.519 290.09 264.789 313.66C263.644 318.231 266.422 322.865 270.993 324.011Z" fill="white"/>
</g>
<defs>
<clipPath id="clip0">
<rect width="512" height="512" fill="white"/>
</clipPath>
</defs>
</svg>
