<svg width="91" height="91" viewBox="0 0 91 91" fill="none" xmlns="http://www.w3.org/2000/svg">
<rect width="91" height="91" fill="black"/>
<path d="M64.5661 0H26.4341C11.8583 0 0 11.8583 0 26.4341V64.5659C0 79.1417 11.8583 91 26.4341 91H64.5659C79.1417 91 91 79.1417 91 64.5661V26.4341C91 11.8583 79.1417 0 64.5661 0ZM83.8906 64.5659C83.8906 75.2216 75.2216 83.8906 64.5661 83.8906H26.4341C15.7784 83.8906 7.10938 75.2216 7.10938 64.5661V26.4341C7.10938 15.7784 15.7784 7.10938 26.4341 7.10938H64.5659C75.2216 7.10938 83.8906 15.7784 83.8906 26.4341V64.5659Z" fill="white"/>
<path d="M45.5 20.9727C31.9755 20.9727 20.9727 31.9755 20.9727 45.5C20.9727 59.0245 31.9755 70.0273 45.5 70.0273C59.0245 70.0273 70.0273 59.0245 70.0273 45.5C70.0273 31.9755 59.0245 20.9727 45.5 20.9727ZM45.5 62.918C35.8958 62.918 28.082 55.1042 28.082 45.5C28.082 35.8958 35.8958 28.082 45.5 28.082C55.1042 28.082 62.918 35.8958 62.918 45.5C62.918 55.1042 55.1042 62.918 45.5 62.918Z" fill="white"/>
<path d="M70.3828 24.1719C72.346 24.1719 73.9375 22.5804 73.9375 20.6172C73.9375 18.654 72.346 17.0625 70.3828 17.0625C68.4196 17.0625 66.8281 18.654 66.8281 20.6172C66.8281 22.5804 68.4196 24.1719 70.3828 24.1719Z" fill="white"/>
</svg>
