<svg width="512" height="512" viewBox="0 0 512 512" fill="none" xmlns="http://www.w3.org/2000/svg">
<path d="M207.386 280.048C207.386 275.906 204.028 272.548 199.886 272.548H31.548C22.423 272.548 15 265.125 15 256V31.548C15 22.423 22.423 15 31.548 15H256C265.125 15 272.548 22.423 272.548 31.548V199.886C272.548 204.028 275.906 207.386 280.048 207.386C284.19 207.386 287.548 204.028 287.548 199.886V31.548C287.548 14.152 273.396 0 256 0H31.548C14.152 0 0 14.152 0 31.548V256C0 273.396 14.152 287.548 31.548 287.548H199.886C204.028 287.548 207.386 284.19 207.386 280.048Z" fill="white"/>
<path d="M480.452 224.452H416.323C412.181 224.452 408.823 227.81 408.823 231.952C408.823 236.094 412.181 239.452 416.323 239.452H480.452C489.577 239.452 497 246.875 497 256V480.452C497 489.577 489.577 497 480.452 497H256C246.875 497 239.452 489.577 239.452 480.452V256C239.452 246.875 246.875 239.452 256 239.452H384.259C388.401 239.452 391.759 236.094 391.759 231.952C391.759 227.81 388.401 224.452 384.259 224.452H256C238.604 224.452 224.452 238.604 224.452 256V480.452C224.452 497.848 238.604 512 256 512H480.452C497.848 512 512 497.848 512 480.452V256C512 238.604 497.848 224.452 480.452 224.452Z" fill="white"/>
<path d="M215.919 80.161H151.274V71.629C151.274 67.487 147.916 64.129 143.774 64.129C139.632 64.129 136.274 67.487 136.274 71.629V80.161H71.6289C67.4869 80.161 64.1289 83.519 64.1289 87.661C64.1289 91.803 67.4869 95.161 71.6289 95.161H182.075C177.756 109.035 166.934 137.014 143.738 164.94C129.572 147.902 119.976 130.774 113.62 116.617C111.923 112.839 107.487 111.15 103.706 112.846C99.9269 114.543 98.2389 118.981 99.9349 122.76C106.956 138.399 117.663 157.421 133.631 176.239C122.248 188.048 108.464 199.498 91.8169 209.487C88.2649 211.618 87.1129 216.225 89.2449 219.777C90.6509 222.121 93.1349 223.419 95.6829 223.419C96.9959 223.419 98.3269 223.074 99.5349 222.349C117.183 211.76 131.76 199.646 143.735 187.342C155.845 199.776 170.436 211.804 188.011 222.349C189.219 223.074 190.55 223.419 191.863 223.419C194.411 223.419 196.895 222.121 198.301 219.777C200.432 216.225 199.28 211.618 195.729 209.487C179.053 199.482 165.256 188.04 153.849 176.222C165.638 162.344 174.285 148.734 180.438 137.308C190.394 118.818 195.481 103.275 197.73 95.16H215.919C220.061 95.16 223.419 91.802 223.419 87.66C223.419 83.518 220.062 80.161 215.919 80.161Z" fill="white"/>
<path d="M378.434 295.254C376.766 291.199 372.857 288.58 368.473 288.58C368.47 288.58 368.466 288.58 368.462 288.58C364.074 288.584 360.165 291.211 358.504 295.273C358.481 295.329 358.459 295.386 358.437 295.442L304.256 437.7C302.782 441.571 304.724 445.904 308.595 447.378C309.474 447.713 310.376 447.871 311.263 447.871C314.285 447.871 317.134 446.031 318.273 443.038L329.927 412.439H406.628L418.168 443.017C419.631 446.892 423.956 448.849 427.833 447.386C431.708 445.924 433.665 441.596 432.202 437.721L378.514 295.457C378.489 295.39 378.462 295.322 378.434 295.254V295.254ZM335.641 397.441L368.454 311.285L400.968 397.441H335.641Z" fill="white"/>
<path d="M204.387 410.323L172.323 386.275C169.01 383.79 164.308 384.462 161.823 387.775C159.338 391.088 160.01 395.79 163.323 398.275L177.387 408.823H151.79C124.984 408.823 103.177 387.015 103.177 360.21V312.117C103.177 307.975 99.819 304.617 95.677 304.617C91.535 304.617 88.177 307.975 88.177 312.117V360.21C88.177 395.287 116.714 423.823 151.79 423.823H177.387L163.323 434.371C160.01 436.856 159.338 441.558 161.823 444.871C163.297 446.836 165.549 447.871 167.829 447.871C169.395 447.871 170.974 447.382 172.323 446.371L204.387 422.323C206.276 420.906 207.387 418.684 207.387 416.323C207.387 413.962 206.276 411.739 204.387 410.323Z" fill="white"/>
<path d="M307.613 101.677L339.677 125.725C341.026 126.737 342.605 127.225 344.171 127.225C346.451 127.225 348.704 126.189 350.177 124.225C352.662 120.912 351.99 116.21 348.677 113.725L334.613 103.177H360.21C387.016 103.177 408.823 124.985 408.823 151.79V199.883C408.823 204.025 412.181 207.383 416.323 207.383C420.465 207.383 423.823 204.025 423.823 199.883V151.79C423.823 116.713 395.286 88.177 360.21 88.177H334.613L348.677 77.6289C351.99 75.1439 352.662 70.4419 350.177 67.1289C347.691 63.8149 342.991 63.1439 339.677 65.6289L307.613 89.677C305.724 91.094 304.613 93.316 304.613 95.677C304.613 98.038 305.724 100.261 307.613 101.677V101.677Z" fill="white"/>
</svg>
