<svg width="513" height="513" viewBox="0 0 513 513" fill="none" xmlns="http://www.w3.org/2000/svg">
<g clip-path="url(#clip0)">
<path d="M502.002 10.249H10C4.477 10.249 0 14.727 0 20.249V123.108C0 128.63 4.477 133.108 10 133.108H502.002C507.525 133.108 512.002 128.63 512.002 123.108V20.249C512.002 14.727 507.525 10.249 502.002 10.249ZM492.002 113.108H20V30.249H492.002V113.108Z" fill="white"/>
<path d="M469.41 90.394L461.243 82.227C463.472 77.819 464.659 72.921 464.659 67.839C464.659 59.306 461.336 51.282 455.302 45.248C442.846 32.793 422.579 32.792 410.122 45.248C404.088 51.282 400.765 59.306 400.765 67.839C400.765 76.372 404.089 84.396 410.122 90.429C416.157 96.463 424.18 99.786 432.713 99.786C437.796 99.786 442.693 98.598 447.101 96.37L455.268 104.537C457.221 106.489 459.78 107.466 462.339 107.466C464.898 107.466 467.458 106.489 469.41 104.537C473.315 100.632 473.315 94.3 469.41 90.394ZM441.161 76.286C438.905 78.543 435.905 79.786 432.713 79.786C429.521 79.786 426.522 78.543 424.265 76.286C422.009 74.029 420.765 71.03 420.765 67.839C420.765 64.648 422.009 61.647 424.265 59.391C426.594 57.062 429.654 55.898 432.713 55.898C435.772 55.898 438.832 57.062 441.161 59.391C443.417 61.648 444.661 64.648 444.661 67.839C444.661 71.03 443.418 74.03 441.161 76.286Z" fill="white"/>
<path d="M358.341 87.831C358.211 87.19 358.021 86.56 357.771 85.961C357.521 85.36 357.211 84.771 356.851 84.231C356.491 83.691 356.071 83.171 355.611 82.711C355.151 82.251 354.641 81.831 354.091 81.471C353.551 81.111 352.971 80.801 352.361 80.551C351.761 80.301 351.131 80.111 350.491 79.981C349.201 79.721 347.871 79.721 346.581 79.981C345.941 80.111 345.311 80.301 344.711 80.551C344.111 80.801 343.531 81.111 342.991 81.471C342.441 81.831 341.931 82.251 341.461 82.711C341.001 83.171 340.591 83.69 340.221 84.231C339.861 84.771 339.551 85.361 339.301 85.961C339.051 86.561 338.861 87.19 338.731 87.831C338.601 88.48 338.541 89.131 338.541 89.791C338.541 90.44 338.601 91.091 338.731 91.741C338.861 92.381 339.051 93.011 339.301 93.61C339.551 94.211 339.861 94.791 340.221 95.34C340.591 95.88 341.001 96.4 341.461 96.86C341.931 97.32 342.441 97.741 342.991 98.1C343.531 98.46 344.111 98.77 344.711 99.02C345.321 99.27 345.951 99.46 346.581 99.59C347.231 99.72 347.891 99.78 348.541 99.78C349.191 99.78 349.851 99.719 350.491 99.59C351.131 99.461 351.761 99.27 352.361 99.02C352.961 98.77 353.551 98.46 354.091 98.1C354.641 97.741 355.151 97.32 355.611 96.86C357.471 94.991 358.541 92.421 358.541 89.791C358.541 89.131 358.471 88.48 358.341 87.831Z" fill="white"/>
<path d="M310.627 79.786H102.794C97.271 79.786 92.794 84.264 92.794 89.786C92.794 95.308 97.271 99.786 102.794 99.786H310.627C316.15 99.786 320.627 95.308 320.627 89.786C320.627 84.264 316.15 79.786 310.627 79.786Z" fill="white"/>
<path d="M314.821 147.364H11.181C5.65803 147.364 1.18103 151.842 1.18103 157.364V354.563C1.18103 360.086 5.65803 364.563 11.181 364.563H314.821C320.344 364.563 324.821 360.085 324.821 354.563V157.364C324.821 151.842 320.344 147.364 314.821 147.364ZM121.806 344.562H36.925L94.09 278.376L135.49 326.316L121.806 344.562ZM146.806 344.562L165.452 319.701H213.941C219.464 319.701 223.941 315.223 223.941 309.701C223.941 304.179 219.464 299.701 213.941 299.701H180.453L187.469 290.347H250.258L290.923 344.562H146.806ZM202.468 270.347L218.863 248.488L235.258 270.347H202.468ZM304.821 329.76L226.863 225.82C224.974 223.302 222.01 221.82 218.863 221.82C215.716 221.82 212.752 223.302 210.863 225.82L147.773 309.939L101.659 256.539C99.76 254.34 96.997 253.075 94.091 253.075C91.185 253.075 88.423 254.34 86.523 256.539L21.181 332.192V167.364H304.821V329.76Z" fill="white"/>
<path d="M137.648 178.846C118.154 178.846 102.295 194.705 102.295 214.199C102.295 233.693 118.155 249.552 137.648 249.552C157.142 249.552 173.001 233.693 173.001 214.199C173.001 194.705 157.142 178.846 137.648 178.846ZM137.648 229.553C129.182 229.553 122.295 222.666 122.295 214.2C122.295 205.734 129.183 198.847 137.648 198.847C146.113 198.847 153.001 205.734 153.001 214.2C153.001 222.666 146.114 229.553 137.648 229.553Z" fill="white"/>
<path d="M502.002 147.364H348.312C342.789 147.364 338.312 151.842 338.312 157.364V354.563C338.312 360.085 342.789 364.563 348.312 364.563H502.002C507.525 364.563 512.002 360.085 512.002 354.563V157.364C512.002 151.842 507.525 147.364 502.002 147.364ZM492.002 344.563H358.312V167.364H492.002V344.563Z" fill="white"/>
<path d="M468.719 183.835H381.595C376.072 183.835 371.595 188.313 371.595 193.835C371.595 199.357 376.072 203.835 381.595 203.835H468.719C474.242 203.835 478.719 199.357 478.719 193.835C478.719 188.313 474.242 183.835 468.719 183.835Z" fill="white"/>
<path d="M468.719 223.969H381.595C376.072 223.969 371.595 228.447 371.595 233.969C371.595 239.491 376.072 243.969 381.595 243.969H468.719C474.242 243.969 478.719 239.491 478.719 233.969C478.719 228.447 474.242 223.969 468.719 223.969Z" fill="white"/>
<path d="M468.719 264.103H381.595C376.072 264.103 371.595 268.581 371.595 274.103C371.595 279.625 376.072 284.103 381.595 284.103H468.719C474.242 284.103 478.719 279.625 478.719 274.103C478.719 268.581 474.242 264.103 468.719 264.103Z" fill="white"/>
<path d="M391.401 312.281C391.271 311.64 391.081 311.01 390.831 310.411C390.581 309.81 390.271 309.23 389.911 308.681C389.541 308.141 389.131 307.621 388.661 307.161C386.341 304.841 382.891 303.77 379.641 304.431C379.001 304.561 378.371 304.751 377.771 305.001C377.171 305.251 376.591 305.561 376.041 305.921C375.501 306.281 374.981 306.701 374.521 307.161C374.061 307.621 373.641 308.14 373.281 308.681C372.921 309.231 372.611 309.811 372.361 310.411C372.111 311.011 371.921 311.64 371.791 312.281C371.661 312.93 371.591 313.581 371.591 314.23C371.591 314.89 371.661 315.541 371.791 316.19C371.921 316.831 372.111 317.461 372.361 318.061C372.611 318.662 372.921 319.242 373.281 319.791C373.641 320.331 374.061 320.851 374.521 321.311C374.981 321.771 375.501 322.191 376.041 322.551C376.591 322.911 377.171 323.221 377.771 323.471C378.371 323.721 379.001 323.911 379.641 324.041C380.291 324.171 380.941 324.241 381.601 324.241C384.231 324.241 386.801 323.171 388.661 321.31C389.121 320.85 389.541 320.331 389.911 319.79C390.271 319.24 390.581 318.66 390.831 318.06C391.081 317.46 391.271 316.831 391.401 316.19C391.531 315.541 391.591 314.89 391.591 314.23C391.591 313.581 391.531 312.93 391.401 312.281Z" fill="white"/>
<path d="M468.719 304.236H419.505C413.982 304.236 409.505 308.714 409.505 314.236C409.505 319.758 413.982 324.236 419.505 324.236H468.719C474.242 324.236 478.719 319.758 478.719 314.236C478.719 308.714 474.242 304.236 468.719 304.236Z" fill="white"/>
<path d="M164.871 378.751H11.181C5.65803 378.751 1.18103 383.229 1.18103 388.751V491.753C1.18103 497.275 5.65803 501.753 11.181 501.753H164.871C170.394 501.753 174.871 497.275 174.871 491.753V388.751C174.871 383.229 170.394 378.751 164.871 378.751ZM154.871 481.753H21.181V398.751H154.871V481.753Z" fill="white"/>
<path d="M502.002 378.751H199.728C194.205 378.751 189.728 383.229 189.728 388.751V491.753C189.728 497.275 194.205 501.753 199.728 501.753H502.002C507.525 501.753 512.002 497.275 512.002 491.753V388.751C512.002 383.229 507.525 378.751 502.002 378.751ZM492.002 481.753H209.728V398.751H492.002V481.753Z" fill="white"/>
<path d="M255.281 438.302C255.151 437.663 254.961 437.032 254.711 436.432C254.461 435.822 254.151 435.243 253.791 434.703C253.431 434.152 253.011 433.642 252.551 433.182C252.091 432.722 251.581 432.302 251.031 431.942C250.491 431.583 249.911 431.272 249.301 431.022C248.701 430.772 248.071 430.572 247.431 430.442C246.141 430.192 244.811 430.192 243.521 430.442C242.891 430.572 242.261 430.772 241.651 431.022C241.051 431.272 240.471 431.583 239.931 431.942C239.381 432.302 238.871 432.722 238.411 433.182C237.951 433.642 237.531 434.152 237.161 434.703C236.801 435.243 236.491 435.822 236.241 436.432C235.991 437.033 235.801 437.662 235.671 438.302C235.541 438.942 235.481 439.602 235.481 440.252C235.481 440.901 235.541 441.562 235.671 442.202C235.801 442.841 235.991 443.471 236.241 444.081C236.491 444.681 236.801 445.261 237.161 445.801C237.531 446.351 237.951 446.861 238.411 447.321C240.271 449.181 242.851 450.252 245.481 450.252C246.131 450.252 246.791 450.191 247.431 450.062C248.071 449.932 248.701 449.732 249.301 449.482C249.911 449.232 250.491 448.932 251.031 448.562C251.581 448.203 252.091 447.783 252.551 447.322C253.011 446.862 253.431 446.352 253.791 445.802C254.151 445.262 254.461 444.682 254.711 444.082C254.961 443.472 255.151 442.842 255.281 442.202C255.411 441.561 255.481 440.901 255.481 440.252C255.481 439.602 255.411 438.941 255.281 438.302Z" fill="white"/>
<path d="M451.319 430.252H283.389C277.866 430.252 273.389 434.73 273.389 440.252C273.389 445.774 277.866 450.252 283.389 450.252H451.319C456.842 450.252 461.319 445.774 461.319 440.252C461.319 434.73 456.842 430.252 451.319 430.252Z" fill="white"/>
</g>
<defs>
<clipPath id="clip0">
<rect width="512.002" height="512.002" fill="white"/>
</clipPath>
</defs>
</svg>
